0
SECTION
2
HEADER
9
$INSUNITS
70
4
9
$ACADVER
1
AC1014
9
$HANDSEED
5
FFFF
0
ENDSEC
0
SECTION
2
TABLES
0
TABLE
2
VPORT
5
8
100
AcDbSymbolTable
0
ENDTAB
0
TABLE
2
LTYPE
5
5
100
AcDbSymbolTable
0
LTYPE
5
14
100
AcDbSymbolTableRecord
100
AcDbLinetypeTableRecord
2
BYBLOCK
70
0
0
LTYPE
5
15
100
AcDbSymbolTableRecord
100
AcDbLinetypeTableRecord
2
BYLAYER
70
0
0
ENDTAB
0
TABLE
2
LAYER
5
2
100
AcDbSymbolTable
70
2
0
LAYER
5
50
100
AcDbSymbolTableRecord
100
AcDbLayerTableRecord
2
0
70
0
6
CONTINUOUS
0
ENDTAB
0
TABLE
2
STYLE
5
3
100
AcDbSymbolTable
70
1
0
STYLE
5
11
100
AcDbSymbolTableRecord
100
AcDbTextStyleTableRecord
2
STANDARD
70
0
0
ENDTAB
0
TABLE
2
VIEW
5
6
100
AcDbSymbolTable
70
0
0
ENDTAB
0
TABLE
2
UCS
5
7
100
AcDbSymbolTable
70
0
0
ENDTAB
0
TABLE
2
APPID
5
9
100
AcDbSymbolTable
70
2
0
APPID
5
12
100
AcDbSymbolTableRecord
100
AcDbRegAppTableRecord
2
ACAD
70
0
0
ENDTAB
0
TABLE
2
DIMSTYLE
5
A
100
AcDbSymbolTable
70
1
0
ENDTAB
0
TABLE
2
BLOCK_RECORD
5
1
100
AcDbSymbolTable
70
1
0
BLOCK_RECORD
5
1F
100
AcDbSymbolTableRecord
100
AcDbBlockTableRecord
2
*MODEL_SPACE
0
BLOCK_RECORD
5
1B
100
AcDbSymbolTableRecord
100
AcDbBlockTableRecord
2
*PAPER_SPACE
0
ENDTAB
0
ENDSEC
0
SECTION
2
BLOCKS
0
BLOCK
5
20
100
AcDbEntity
100
AcDbBlockBegin
2
*MODEL_SPACE
0
ENDBLK
5
21
100
AcDbEntity
100
AcDbBlockEnd
0
BLOCK
5
1C
100
AcDbEntity
100
AcDbBlockBegin
2
*PAPER_SPACE
0
ENDBLK
5
1D
100
AcDbEntity
100
AcDbBlockEnd
0
ENDSEC
0
SECTION
2
ENTITIES
0
LWPOLYLINE
5
100
100
AcDbEntity
8
0
100
AcDbPolyline
90
4
70
1
43
0.0
10
40.750000223517418
20
235.00000350177288
10
15.000000223517418
20
235.00000350177288
10
15.000000223517418
20
209.25000350177288
10
40.750000223517418
20
209.25000350177288
0
LWPOLYLINE
5
101
100
AcDbEntity
8
0
100
AcDbPolyline
90
4
70
1
43
0.0
10
68.500000223517418
20
207.25000350177288
10
42.750000223517418
20
207.25000350177288
10
42.750000223517418
20
181.50000350177291
10
68.500000223517418
20
181.50000350177291
0
LWPOLYLINE
5
102
100
AcDbEntity
8
0
100
AcDbPolyline
90
8
70
1
43
0.0
10
245
20
250
10
5
20
250
42
0.41421356237309509
10
0
20
245
10
1.1102230246251565e-15
20
5
42
0.4142135623730952
10
5
20
-5.5511151231257827e-16
10
245
20
-1.7763568394002505e-14
42
0.41421356237309509
10
250
20
5
10
250
20
245
42
0.41421356237309509
0
LWPOLYLINE
5
103
100
AcDbEntity
8
0
100
AcDbPolyline
90
4
70
1
43
0.0
10
40.750000223517418
20
209.25000350177288
10
40.750000223517418
20
235.00000350177288
10
15.000000223517418
20
235.00000350177288
10
15.000000223517418
20
209.25000350177288
0
LWPOLYLINE
5
104
100
AcDbEntity
8
0
100
AcDbPolyline
90
4
70
1
43
0.0
10
96.250000223517418
20
209.25000350177288
10
96.250000223517418
20
235.00000350177288
10
70.500000223517418
20
235.00000350177288
10
70.500000223517418
20
209.25000350177288
0
LWPOLYLINE
5
105
100
AcDbEntity
8
0
100
AcDbPolyline
90
4
70
1
43
0.0
10
124.00000022351742
20
181.50000350177291
10
124.00000022351742
20
207.25000350177288
10
98.250000223517418
20
207.25000350177288
10
98.250000223517418
20
181.50000350177291
0
LWPOLYLINE
5
106
100
AcDbEntity
8
0
100
AcDbPolyline
90
4
70
1
43
0.0
10
124.00000022351742
20
181.50000350177291
10
124.00000022351742
20
207.25000350177288
10
98.250000223517418
20
207.25000350177288
10
98.250000223517418
20
181.50000350177291
0
LWPOLYLINE
5
107
100
AcDbEntity
8
0
100
AcDbPolyline
90
4
70
1
43
0.0
10
70.500000223517418
20
235.00000350177288
10
70.500000223517418
20
209.25000350177288
10
96.250000223517418
20
209.25000350177288
10
96.250000223517418
20
235.00000350177288
0
LWPOLYLINE
5
108
100
AcDbEntity
8
0
100
AcDbPolyline
90
4
70
1
43
0.0
10
68.500000223517418
20
181.50000350177291
10
68.500000223517418
20
207.25000350177288
10
42.750000223517418
20
207.25000350177288
10
42.750000223517418
20
181.50000350177291
0
LWPOLYLINE
5
109
100
AcDbEntity
8
0
100
AcDbPolyline
90
4
70
1
43
0.0
10
40.750000223517418
20
235.00000350177288
10
15.000000223517418
20
235.00000350177288
10
15.000000223517418
20
209.25000350177288
10
40.750000223517418
20
209.25000350177288
0
LWPOLYLINE
5
110
100
AcDbEntity
8
0
100
AcDbPolyline
90
4
70
1
43
0.0
10
40.750000223517418
20
235.00000350177288
10
15.000000223517418
20
235.00000350177288
10
15.000000223517418
20
209.25000350177288
10
40.750000223517418
20
209.25000350177288
0
LWPOLYLINE
5
111
100
AcDbEntity
8
0
100
AcDbPolyline
90
4
70
1
43
0.0
10
70.500000223517418
20
235.00000350177288
10
70.500000223517418
20
209.25000350177288
10
96.250000223517418
20
209.25000350177288
10
96.250000223517418
20
235.00000350177288
0
LWPOLYLINE
5
112
100
AcDbEntity
8
0
100
AcDbPolyline
90
4
70
1
43
0.0
10
15.000000223517418
20
235.00000350177288
10
15.000000223517418
20
209.25000350177288
10
40.750000223517418
20
209.25000350177288
10
40.750000223517418
20
235.00000350177288
0
LWPOLYLINE
5
113
100
AcDbEntity
8
0
100
AcDbPolyline
90
4
70
1
43
0.0
10
40.750000223517418
20
235.00000350177288
10
15.000000223517418
20
235.00000350177288
10
15.000000223517418
20
209.25000350177288
10
40.750000223517418
20
209.25000350177288
0
LWPOLYLINE
5
114
100
AcDbEntity
8
0
100
AcDbPolyline
90
4
70
1
43
0.0
10
42.750000223517418
20
181.50000350177291
10
68.500000223517418
20
181.50000350177291
10
68.500000223517418
20
207.25000350177288
10
42.750000223517418
20
207.25000350177288
0
LWPOLYLINE
5
115
100
AcDbEntity
8
0
100
AcDbPolyline
90
4
70
1
43
0.0
10
15.000000223517418
20
209.25000350177288
10
40.750000223517418
20
209.25000350177288
10
40.750000223517418
20
235.00000350177288
10
15.000000223517418
20
235.00000350177288
0
LWPOLYLINE
5
116
100
AcDbEntity
8
0
100
AcDbPolyline
90
4
70
1
43
0.0
10
68.500000223517418
20
207.25000350177288
10
42.750000223517418
20
207.25000350177288
10
42.750000223517418
20
181.50000350177291
10
68.500000223517418
20
181.50000350177291
0
LWPOLYLINE
5
117
100
AcDbEntity
8
0
100
AcDbPolyline
90
4
70
1
43
0.0
10
124.00000022351742
20
181.50000350177291
10
124.00000022351742
20
207.25000350177288
10
98.250000223517418
20
207.25000350177288
10
98.250000223517418
20
181.50000350177291
0
LWPOLYLINE
5
118
100
AcDbEntity
8
0
100
AcDbPolyline
90
4
70
1
43
0.0
10
124.00000022351742
20
181.50000350177291
10
124.00000022351742
20
207.25000350177288
10
98.250000223517418
20
207.25000350177288
10
98.250000223517418
20
181.50000350177291
0
LWPOLYLINE
5
119
100
AcDbEntity
8
0
100
AcDbPolyline
90
4
70
1
43
0.0
10
70.500000223517418
20
209.25000350177288
10
96.250000223517418
20
209.25000350177288
10
96.250000223517418
20
235.00000350177288
10
70.500000223517418
20
235.00000350177288
0
LWPOLYLINE
5
120
100
AcDbEntity
8
0
100
AcDbPolyline
90
4
70
1
43
0.0
10
15.000000223517418
20
209.25000350177288
10
40.750000223517418
20
209.25000350177288
10
40.750000223517418
20
235.00000350177288
10
15.000000223517418
20
235.00000350177288
0
LWPOLYLINE
5
121
100
AcDbEntity
8
0
100
AcDbPolyline
90
4
70
1
43
0.0
10
40.750000223517418
20
235.00000350177288
10
15.000000223517418
20
235.00000350177288
10
15.000000223517418
20
209.25000350177288
10
40.750000223517418
20
209.25000350177288
0
LWPOLYLINE
5
122
100
AcDbEntity
8
0
100
AcDbPolyline
90
4
70
1
43
0.0
10
15.000000223517418
20
209.25000350177288
10
40.750000223517418
20
209.25000350177288
10
40.750000223517418
20
235.00000350177288
10
15.000000223517418
20
235.00000350177288
0
LWPOLYLINE
5
123
100
AcDbEntity
8
0
100
AcDbPolyline
90
4
70
1
43
0.0
10
15.000000223517418
20
209.25000350177288
10
40.750000223517418
20
209.25000350177288
10
40.750000223517418
20
235.00000350177288
10
15.000000223517418
20
235.00000350177288
0
LWPOLYLINE
5
124
100
AcDbEntity
8
0
100
AcDbPolyline
90
4
70
1
43
0.0
10
15.000000223517418
20
209.25000350177288
10
40.750000223517418
20
209.25000350177288
10
40.750000223517418
20
235.00000350177288
10
15.000000223517418
20
235.00000350177288
0
LWPOLYLINE
5
125
100
AcDbEntity
8
0
100
AcDbPolyline
90
4
70
1
43
0.0
10
40.750000223517418
20
209.25000350177288
10
40.750000223517418
20
235.00000350177288
10
15.000000223517418
20
235.00000350177288
10
15.000000223517418
20
209.25000350177288
0
LWPOLYLINE
5
126
100
AcDbEntity
8
0
100
AcDbPolyline
90
4
70
1
43
0.0
10
15.000000223517418
20
235.00000350177288
10
15.000000223517418
20
209.25000350177288
10
40.750000223517418
20
209.25000350177288
10
40.750000223517418
20
235.00000350177288
0
LWPOLYLINE
5
127
100
AcDbEntity
8
0
100
AcDbPolyline
90
4
70
1
43
0.0
10
40.750000223517418
20
235.00000350177288
10
15.000000223517418
20
235.00000350177288
10
15.000000223517418
20
209.25000350177288
10
40.750000223517418
20
209.25000350177288
0
LWPOLYLINE
5
128
100
AcDbEntity
8
0
100
AcDbPolyline
90
4
70
1
43
0.0
10
40.750000223517418
20
235.00000350177288
10
15.000000223517418
20
235.00000350177288
10
15.000000223517418
20
209.25000350177288
10
40.750000223517418
20
209.25000350177288
0
LWPOLYLINE
5
129
100
AcDbEntity
8
0
100
AcDbPolyline
90
4
70
1
43
0.0
10
124.00000022351742
20
235.00000350177288
10
98.250000223517432
20
235.00000350177288
10
98.250000223517432
20
209.25000350177288
10
124.00000022351742
20
209.25000350177288
0
LWPOLYLINE
5
130
100
AcDbEntity
8
0
100
AcDbPolyline
90
4
70
1
43
0.0
10
68.500000223517418
20
235.00000350177288
10
42.750000223517411
20
235.00000350177288
10
42.750000223517411
20
209.25000350177288
10
68.500000223517418
20
209.25000350177288
0
LWPOLYLINE
5
131
100
AcDbEntity
8
0
100
AcDbPolyline
90
4
70
1
43
0.0
10
40.750000223517418
20
181.50000350177291
10
40.750000223517418
20
207.25000350177288
10
15.000000223517418
20
207.25000350177288
10
15.000000223517418
20
181.50000350177291
0
LWPOLYLINE
5
132
100
AcDbEntity
8
0
100
AcDbPolyline
90
4
70
1
43
0.0
10
96.250000223517418
20
181.50000350177291
10
96.250000223517418
20
207.25000350177288
10
70.500000223517404
20
207.25000350177288
10
70.500000223517404
20
181.50000350177291
0
LWPOLYLINE
5
133
100
AcDbEntity
8
0
100
AcDbPolyline
90
4
70
1
43
0.0
10
98.250000223517432
20
235.00000350177288
10
98.250000223517432
20
209.25000350177288
10
124.00000022351742
20
209.25000350177288
10
124.00000022351742
20
235.00000350177288
0
LWPOLYLINE
5
134
100
AcDbEntity
8
0
100
AcDbPolyline
90
4
70
1
43
0.0
10
96.250000223517418
20
181.50000350177291
10
96.250000223517418
20
207.25000350177288
10
70.500000223517404
20
207.25000350177288
10
70.500000223517404
20
181.50000350177291
0
LWPOLYLINE
5
135
100
AcDbEntity
8
0
100
AcDbPolyline
90
4
70
1
43
0.0
10
68.500000223517418
20
209.25000350177288
10
68.500000223517418
20
235.00000350177288
10
42.750000223517411
20
235.00000350177288
10
42.750000223517411
20
209.25000350177288
0
LWPOLYLINE
5
136
100
AcDbEntity
8
0
100
AcDbPolyline
90
4
70
1
43
0.0
10
70.500000223517404
20
181.50000350177291
10
96.250000223517418
20
181.50000350177291
10
96.250000223517418
20
207.25000350177288
10
70.500000223517404
20
207.25000350177288
0
LWPOLYLINE
5
137
100
AcDbEntity
8
0
100
AcDbPolyline
90
4
70
1
43
0.0
10
98.250000223517432
20
235.00000350177288
10
98.250000223517432
20
209.25000350177288
10
124.00000022351742
20
209.25000350177288
10
124.00000022351742
20
235.00000350177288
0
LWPOLYLINE
5
138
100
AcDbEntity
8
0
100
AcDbPolyline
90
4
70
1
43
0.0
10
15.000000223517418
20
181.50000350177291
10
40.750000223517418
20
181.50000350177291
10
40.750000223517418
20
207.25000350177288
10
15.000000223517418
20
207.25000350177288
0
LWPOLYLINE
5
139
100
AcDbEntity
8
0
100
AcDbPolyline
90
4
70
1
43
0.0
10
70.500000223517404
20
207.25000350177288
10
70.500000223517404
20
181.50000350177291
10
96.250000223517418
20
181.50000350177291
10
96.250000223517418
20
207.25000350177288
0
LWPOLYLINE
5
140
100
AcDbEntity
8
0
100
AcDbPolyline
90
4
70
1
43
0.0
10
42.750000223517411
20
235.00000350177288
10
42.750000223517411
20
209.25000350177288
10
68.500000223517418
20
209.25000350177288
10
68.500000223517418
20
235.00000350177288
0
LWPOLYLINE
5
141
100
AcDbEntity
8
0
100
AcDbPolyline
90
4
70
1
43
0.0
10
68.500000223517418
20
235.00000350177288
10
42.750000223517411
20
235.00000350177288
10
42.750000223517411
20
209.25000350177288
10
68.500000223517418
20
209.25000350177288
0
LWPOLYLINE
5
142
100
AcDbEntity
8
0
100
AcDbPolyline
90
4
70
1
43
0.0
10
15.000000223517418
20
207.25000350177288
10
15.000000223517418
20
181.50000350177291
10
40.750000223517418
20
181.50000350177291
10
40.750000223517418
20
207.25000350177288
0
LWPOLYLINE
5
143
100
AcDbEntity
8
0
100
AcDbPolyline
90
4
70
1
43
0.0
10
124.00000022351742
20
209.25000350177288
10
124.00000022351742
20
235.00000350177288
10
98.250000223517432
20
235.00000350177288
10
98.250000223517432
20
209.25000350177288
0
LWPOLYLINE
5
144
100
AcDbEntity
8
0
100
AcDbPolyline
90
4
70
1
43
0.0
10
15.000000223517418
20
207.25000350177288
10
15.000000223517418
20
181.50000350177291
10
40.750000223517418
20
181.50000350177291
10
40.750000223517418
20
207.25000350177288
0
LWPOLYLINE
5
145
100
AcDbEntity
8
0
100
AcDbPolyline
90
4
70
1
43
0.0
10
153.75000022351742
20
235.00000350177288
10
153.75000022351742
20
209.25000350177288
10
179.50000022351745
20
209.25000350177288
10
179.50000022351745
20
235.00000350177288
0
LWPOLYLINE
5
146
100
AcDbEntity
8
0
100
AcDbPolyline
90
4
70
1
43
0.0
10
179.50000022351745
20
207.25000350177288
10
153.75000022351745
20
207.25000350177288
10
153.75000022351745
20
181.50000350177291
10
179.50000022351745
20
181.50000350177291
0
LWPOLYLINE
5
147
100
AcDbEntity
8
0
100
AcDbPolyline
90
4
70
1
43
0.0
10
235.00000022351742
20
181.50000350177291
10
235.00000022351742
20
207.25000350177288
10
209.25000022351742
20
207.25000350177288
10
209.25000022351742
20
181.50000350177291
0
LWPOLYLINE
5
148
100
AcDbEntity
8
0
100
AcDbPolyline
90
4
70
1
43
0.0
10
126.00000022351743
20
235.00000350177288
10
126.00000022351743
20
209.25000350177288
10
151.75000022351742
20
209.25000350177288
10
151.75000022351742
20
235.00000350177288
0
LWPOLYLINE
5
149
100
AcDbEntity
8
0
100
AcDbPolyline
90
4
70
1
43
0.0
10
209.25000022351747
20
209.25000350177288
10
235.00000022351742
20
209.25000350177288
10
235.00000022351742
20
235.00000350177288
10
209.25000022351747
20
235.00000350177288
0
LWPOLYLINE
5
150
100
AcDbEntity
8
0
100
AcDbPolyline
90
4
70
1
43
0.0
10
126.00000022351743
20
209.25000350177288
10
151.75000022351742
20
209.25000350177288
10
151.75000022351742
20
235.00000350177288
10
126.00000022351743
20
235.00000350177288
0
LWPOLYLINE
5
151
100
AcDbEntity
8
0
100
AcDbPolyline
90
4
70
1
43
0.0
10
151.75000022351742
20
209.25000350177288
10
151.75000022351742
20
235.00000350177288
10
126.00000022351743
20
235.00000350177288
10
126.00000022351743
20
209.25000350177288
0
LWPOLYLINE
5
152
100
AcDbEntity
8
0
100
AcDbPolyline
90
4
70
1
43
0.0
10
153.75000022351742
20
209.25000350177288
10
179.50000022351745
20
209.25000350177288
10
179.50000022351745
20
235.00000350177288
10
153.75000022351742
20
235.00000350177288
0
LWPOLYLINE
5
153
100
AcDbEntity
8
0
100
AcDbPolyline
90
4
70
1
43
0.0
10
179.50000022351745
20
207.25000350177288
10
153.75000022351745
20
207.25000350177288
10
153.75000022351745
20
181.50000350177291
10
179.50000022351745
20
181.50000350177291
0
LWPOLYLINE
5
154
100
AcDbEntity
8
0
100
AcDbPolyline
90
4
70
1
43
0.0
10
235.00000022351742
20
209.25000350177288
10
235.00000022351742
20
235.00000350177288
10
209.25000022351747
20
235.00000350177288
10
209.25000022351747
20
209.25000350177288
0
LWPOLYLINE
5
155
100
AcDbEntity
8
0
100
AcDbPolyline
90
4
70
1
43
0.0
10
151.75000022351742
20
209.25000350177288
10
151.75000022351742
20
235.00000350177288
10
126.00000022351743
20
235.00000350177288
10
126.00000022351743
20
209.25000350177288
0
LWPOLYLINE
5
156
100
AcDbEntity
8
0
100
AcDbPolyline
90
4
70
1
43
0.0
10
151.75000022351742
20
209.25000350177288
10
151.75000022351742
20
235.00000350177288
10
126.00000022351743
20
235.00000350177288
10
126.00000022351743
20
209.25000350177288
0
LWPOLYLINE
5
157
100
AcDbEntity
8
0
100
AcDbPolyline
90
4
70
1
43
0.0
10
151.75000022351742
20
235.00000350177288
10
126.00000022351743
20
235.00000350177288
10
126.00000022351743
20
209.25000350177288
10
151.75000022351742
20
209.25000350177288
0
LWPOLYLINE
5
158
100
AcDbEntity
8
0
100
AcDbPolyline
90
4
70
1
43
0.0
10
179.50000022351745
20
235.00000350177288
10
153.75000022351742
20
235.00000350177288
10
153.75000022351742
20
209.25000350177288
10
179.50000022351745
20
209.25000350177288
0
LWPOLYLINE
5
159
100
AcDbEntity
8
0
100
AcDbPolyline
90
4
70
1
43
0.0
10
151.75000022351742
20
207.25000350177288
10
126.00000022351743
20
207.25000350177288
10
126.00000022351743
20
181.50000350177291
10
151.75000022351742
20
181.50000350177291
0
LWPOLYLINE
5
160
100
AcDbEntity
8
0
100
AcDbPolyline
90
4
70
1
43
0.0
10
181.50000022351745
20
209.25000350177288
10
207.25000022351742
20
209.25000350177288
10
207.25000022351742
20
235.00000350177288
10
181.50000022351745
20
235.00000350177288
0
LWPOLYLINE
5
161
100
AcDbEntity
8
0
100
AcDbPolyline
90
4
70
1
43
0.0
10
126.00000022351743
20
209.25000350177288
10
151.75000022351742
20
209.25000350177288
10
151.75000022351742
20
235.00000350177288
10
126.00000022351743
20
235.00000350177288
0
LWPOLYLINE
5
162
100
AcDbEntity
8
0
100
AcDbPolyline
90
4
70
1
43
0.0
10
151.75000022351742
20
209.25000350177288
10
151.75000022351742
20
235.00000350177288
10
126.00000022351743
20
235.00000350177288
10
126.00000022351743
20
209.25000350177288
0
LWPOLYLINE
5
163
100
AcDbEntity
8
0
100
AcDbPolyline
90
4
70
1
43
0.0
10
151.75000022351742
20
235.00000350177288
10
126.00000022351743
20
235.00000350177288
10
126.00000022351743
20
209.25000350177288
10
151.75000022351742
20
209.25000350177288
0
LWPOLYLINE
5
164
100
AcDbEntity
8
0
100
AcDbPolyline
90
4
70
1
43
0.0
10
151.75000022351742
20
209.25000350177288
10
151.75000022351742
20
235.00000350177288
10
126.00000022351743
20
235.00000350177288
10
126.00000022351743
20
209.25000350177288
0
LWPOLYLINE
5
165
100
AcDbEntity
8
0
100
AcDbPolyline
90
4
70
1
43
0.0
10
126.00000022351743
20
209.25000350177288
10
151.75000022351742
20
209.25000350177288
10
151.75000022351742
20
235.00000350177288
10
126.00000022351743
20
235.00000350177288
0
LWPOLYLINE
5
166
100
AcDbEntity
8
0
100
AcDbPolyline
90
4
70
1
43
0.0
10
235.00000022351742
20
181.50000350177291
10
235.00000022351742
20
207.25000350177288
10
209.25000022351742
20
207.25000350177288
10
209.25000022351742
20
181.50000350177291
0
LWPOLYLINE
5
167
100
AcDbEntity
8
0
100
AcDbPolyline
90
4
70
1
43
0.0
10
151.75000022351742
20
209.25000350177288
10
151.75000022351742
20
235.00000350177288
10
126.00000022351743
20
235.00000350177288
10
126.00000022351743
20
209.25000350177288
0
LWPOLYLINE
5
168
100
AcDbEntity
8
0
100
AcDbPolyline
90
4
70
1
43
0.0
10
179.50000022351745
20
207.25000350177288
10
153.75000022351745
20
207.25000350177288
10
153.75000022351745
20
181.50000350177291
10
179.50000022351745
20
181.50000350177291
0
LWPOLYLINE
5
169
100
AcDbEntity
8
0
100
AcDbPolyline
90
4
70
1
43
0.0
10
151.75000022351742
20
209.25000350177288
10
151.75000022351742
20
235.00000350177288
10
126.00000022351743
20
235.00000350177288
10
126.00000022351743
20
209.25000350177288
0
LWPOLYLINE
5
170
100
AcDbEntity
8
0
100
AcDbPolyline
90
4
70
1
43
0.0
10
179.50000022351745
20
207.25000350177288
10
153.75000022351745
20
207.25000350177288
10
153.75000022351745
20
181.50000350177291
10
179.50000022351745
20
181.50000350177291
0
LWPOLYLINE
5
171
100
AcDbEntity
8
0
100
AcDbPolyline
90
4
70
1
43
0.0
10
209.25000022351742
20
181.50000350177291
10
235.00000022351742
20
181.50000350177291
10
235.00000022351742
20
207.25000350177288
10
209.25000022351742
20
207.25000350177288
0
LWPOLYLINE
5
172
100
AcDbEntity
8
0
100
AcDbPolyline
90
4
70
1
43
0.0
10
179.50000022351745
20
235.00000350177288
10
153.75000022351742
20
235.00000350177288
10
153.75000022351742
20
209.25000350177288
10
179.50000022351745
20
209.25000350177288
0
LWPOLYLINE
5
173
100
AcDbEntity
8
0
100
AcDbPolyline
90
4
70
1
43
0.0
10
209.25000022351742
20
181.50000350177291
10
235.00000022351742
20
181.50000350177291
10
235.00000022351742
20
207.25000350177288
10
209.25000022351742
20
207.25000350177288
0
LWPOLYLINE
5
174
100
AcDbEntity
8
0
100
AcDbPolyline
90
4
70
1
43
0.0
10
126.00000022351743
20
209.25000350177288
10
151.75000022351742
20
209.25000350177288
10
151.75000022351742
20
235.00000350177288
10
126.00000022351743
20
235.00000350177288
0
LWPOLYLINE
5
175
100
AcDbEntity
8
0
100
AcDbPolyline
90
4
70
1
43
0.0
10
151.75000022351742
20
209.25000350177288
10
151.75000022351742
20
235.00000350177288
10
126.00000022351743
20
235.00000350177288
10
126.00000022351743
20
209.25000350177288
0
LWPOLYLINE
5
176
100
AcDbEntity
8
0
100
AcDbPolyline
90
4
70
1
43
0.0
10
235.00000022351742
20
235.00000350177288
10
209.25000022351747
20
235.00000350177288
10
209.25000022351747
20
209.25000350177288
10
235.00000022351742
20
209.25000350177288
0
LWPOLYLINE
5
177
100
AcDbEntity
8
0
100
AcDbPolyline
90
4
70
1
43
0.0
10
181.50000022351745
20
209.25000350177288
10
207.25000022351742
20
209.25000350177288
10
207.25000022351742
20
235.00000350177288
10
181.50000022351745
20
235.00000350177288
0
LWPOLYLINE
5
178
100
AcDbEntity
8
0
100
AcDbPolyline
90
4
70
1
43
0.0
10
207.25000022351742
20
207.25000350177288
10
181.50000022351742
20
207.25000350177288
10
181.50000022351742
20
181.50000350177291
10
207.25000022351742
20
181.50000350177291
0
LWPOLYLINE
5
179
100
AcDbEntity
8
0
100
AcDbPolyline
90
4
70
1
43
0.0
10
181.50000022351745
20
235.00000350177288
10
181.50000022351745
20
209.25000350177288
10
207.25000022351742
20
209.25000350177288
10
207.25000022351742
20
235.00000350177288
0
LWPOLYLINE
5
180
100
AcDbEntity
8
0
100
AcDbPolyline
90
4
70
1
43
0.0
10
181.50000022351742
20
181.50000350177291
10
207.25000022351742
20
181.50000350177291
10
207.25000022351742
20
207.25000350177288
10
181.50000022351742
20
207.25000350177288
0
LWPOLYLINE
5
181
100
AcDbEntity
8
0
100
AcDbPolyline
90
4
70
1
43
0.0
10
181.50000022351742
20
181.50000350177291
10
207.25000022351742
20
181.50000350177291
10
207.25000022351742
20
207.25000350177288
10
181.50000022351742
20
207.25000350177288
0
LWPOLYLINE
5
182
100
AcDbEntity
8
0
100
AcDbPolyline
90
4
70
1
43
0.0
10
181.50000022351742
20
181.50000350177291
10
207.25000022351742
20
181.50000350177291
10
207.25000022351742
20
207.25000350177288
10
181.50000022351742
20
207.25000350177288
0
LWPOLYLINE
5
183
100
AcDbEntity
8
0
100
AcDbPolyline
90
4
70
1
43
0.0
10
207.25000022351742
20
235.00000350177288
10
181.50000022351745
20
235.00000350177288
10
181.50000022351745
20
209.25000350177288
10
207.25000022351742
20
209.25000350177288
0
LWPOLYLINE
5
184
100
AcDbEntity
8
0
100
AcDbPolyline
90
4
70
1
43
0.0
10
209.25000022351747
20
235.00000350177288
10
209.25000022351747
20
209.25000350177288
10
235.00000022351742
20
209.25000350177288
10
235.00000022351742
20
235.00000350177288
0
LWPOLYLINE
5
185
100
AcDbEntity
8
0
100
AcDbPolyline
90
4
70
1
43
0.0
10
151.75000022351742
20
181.50000350177291
10
151.75000022351742
20
207.25000350177288
10
126.00000022351743
20
207.25000350177288
10
126.00000022351743
20
181.50000350177291
0
LWPOLYLINE
5
186
100
AcDbEntity
8
0
100
AcDbPolyline
90
4
70
1
43
0.0
10
151.75000022351742
20
235.00000350177288
10
126.00000022351743
20
235.00000350177288
10
126.00000022351743
20
209.25000350177288
10
151.75000022351742
20
209.25000350177288
0
LWPOLYLINE
5
187
100
AcDbEntity
8
0
100
AcDbPolyline
90
4
70
1
43
0.0
10
126.00000022351743
20
207.25000350177288
10
126.00000022351743
20
181.50000350177291
10
151.75000022351742
20
181.50000350177291
10
151.75000022351742
20
207.25000350177288
0
LWPOLYLINE
5
188
100
AcDbEntity
8
0
100
AcDbPolyline
90
4
70
1
43
0.0
10
151.75000022351742
20
181.50000350177291
10
151.75000022351742
20
207.25000350177288
10
126.00000022351743
20
207.25000350177288
10
126.00000022351743
20
181.50000350177291
0
LWPOLYLINE
5
189
100
AcDbEntity
8
0
100
AcDbPolyline
90
4
70
1
43
0.0
10
207.25000022351742
20
179.50000350177288
10
181.50000022351745
20
179.50000350177288
10
181.50000022351745
20
153.75000350177288
10
207.25000022351742
20
153.75000350177288
0
LWPOLYLINE
5
190
100
AcDbEntity
8
0
100
AcDbPolyline
90
4
70
1
43
0.0
10
126.00000022351743
20
153.75000350177288
10
151.75000022351742
20
153.75000350177288
10
151.75000022351742
20
179.50000350177288
10
126.00000022351743
20
179.50000350177288
0
LWPOLYLINE
5
191
100
AcDbEntity
8
0
100
AcDbPolyline
90
4
70
1
43
0.0
10
235.00000022351742
20
153.75000350177288
10
235.00000022351742
20
179.50000350177288
10
209.25000022351747
20
179.50000350177288
10
209.25000022351747
20
153.75000350177288
0
LWPOLYLINE
5
192
100
AcDbEntity
8
0
100
AcDbPolyline
90
4
70
1
43
0.0
10
207.25000022351742
20
179.50000350177288
10
181.50000022351745
20
179.50000350177288
10
181.50000022351745
20
153.75000350177288
10
207.25000022351742
20
153.75000350177288
0
LWPOLYLINE
5
193
100
AcDbEntity
8
0
100
AcDbPolyline
90
4
70
1
43
0.0
10
15.000000223517418
20
153.75000350177288
10
40.750000223517418
20
153.75000350177288
10
40.750000223517418
20
179.50000350177288
10
15.000000223517418
20
179.50000350177288
0
LWPOLYLINE
5
194
100
AcDbEntity
8
0
100
AcDbPolyline
90
4
70
1
43
0.0
10
15.000000223517418
20
179.50000350177288
10
15.000000223517418
20
153.75000350177288
10
40.750000223517418
20
153.75000350177288
10
40.750000223517418
20
179.50000350177288
0
LWPOLYLINE
5
195
100
AcDbEntity
8
0
100
AcDbPolyline
90
4
70
1
43
0.0
10
151.75000022351742
20
179.50000350177288
10
126.00000022351743
20
179.50000350177288
10
126.00000022351743
20
153.75000350177288
10
151.75000022351742
20
153.75000350177288
0
LWPOLYLINE
5
196
100
AcDbEntity
8
0
100
AcDbPolyline
90
4
70
1
43
0.0
10
15.000000223517418
20
153.75000350177288
10
40.750000223517418
20
153.75000350177288
10
40.750000223517418
20
179.50000350177288
10
15.000000223517418
20
179.50000350177288
0
LWPOLYLINE
5
197
100
AcDbEntity
8
0
100
AcDbPolyline
90
4
70
1
43
0.0
10
40.750000223517418
20
126.00000350177289
10
40.750000223517418
20
151.75000350177288
10
15.000000223517418
20
151.75000350177288
10
15.000000223517418
20
126.00000350177289
0
LWPOLYLINE
5
198
100
AcDbEntity
8
0
100
AcDbPolyline
90
4
70
1
43
0.0
10
40.750000223517418
20
126.00000350177289
10
40.750000223517418
20
151.75000350177288
10
15.000000223517418
20
151.75000350177288
10
15.000000223517418
20
126.00000350177289
0
LWPOLYLINE
5
199
100
AcDbEntity
8
0
100
AcDbPolyline
90
4
70
1
43
0.0
10
151.75000022351742
20
179.50000350177288
10
126.00000022351743
20
179.50000350177288
10
126.00000022351743
20
153.75000350177288
10
151.75000022351742
20
153.75000350177288
0
LWPOLYLINE
5
200
100
AcDbEntity
8
0
100
AcDbPolyline
90
4
70
1
43
0.0
10
98.250000223517418
20
126.00000350177289
10
124.00000022351742
20
126.00000350177289
10
124.00000022351742
20
151.75000350177288
10
98.250000223517418
20
151.75000350177288
0
LWPOLYLINE
5
201
100
AcDbEntity
8
0
100
AcDbPolyline
90
4
70
1
43
0.0
10
151.75000022351742
20
153.75000350177288
10
151.75000022351742
20
179.50000350177288
10
126.00000022351743
20
179.50000350177288
10
126.00000022351743
20
153.75000350177288
0
LWPOLYLINE
5
202
100
AcDbEntity
8
0
100
AcDbPolyline
90
4
70
1
43
0.0
10
153.75000022351742
20
179.50000350177288
10
153.75000022351742
20
153.75000350177288
10
179.50000022351745
20
153.75000350177288
10
179.50000022351745
20
179.50000350177288
0
LWPOLYLINE
5
203
100
AcDbEntity
8
0
100
AcDbPolyline
90
4
70
1
43
0.0
10
151.75000022351742
20
126.00000350177289
10
151.75000022351742
20
151.75000350177288
10
126.00000022351743
20
151.75000350177288
10
126.00000022351743
20
126.00000350177289
0
LWPOLYLINE
5
204
100
AcDbEntity
8
0
100
AcDbPolyline
90
4
70
1
43
0.0
10
151.75000022351742
20
179.50000350177288
10
126.00000022351743
20
179.50000350177288
10
126.00000022351743
20
153.75000350177288
10
151.75000022351742
20
153.75000350177288
0
LWPOLYLINE
5
205
100
AcDbEntity
8
0
100
AcDbPolyline
90
4
70
1
43
0.0
10
96.250000223517418
20
179.50000350177288
10
70.500000223517418
20
179.50000350177288
10
70.500000223517418
20
153.75000350177288
10
96.250000223517418
20
153.75000350177288
0
LWPOLYLINE
5
206
100
AcDbEntity
8
0
100
AcDbPolyline
90
4
70
1
43
0.0
10
40.750000223517418
20
153.75000350177288
10
40.750000223517418
20
179.50000350177288
10
15.000000223517418
20
179.50000350177288
10
15.000000223517418
20
153.75000350177288
0
LWPOLYLINE
5
207
100
AcDbEntity
8
0
100
AcDbPolyline
90
4
70
1
43
0.0
10
15.000000223517418
20
179.50000350177288
10
15.000000223517418
20
153.75000350177288
10
40.750000223517418
20
153.75000350177288
10
40.750000223517418
20
179.50000350177288
0
LWPOLYLINE
5
208
100
AcDbEntity
8
0
100
AcDbPolyline
90
4
70
1
43
0.0
10
15.000000223517418
20
179.50000350177288
10
15.000000223517418
20
153.75000350177288
10
40.750000223517418
20
153.75000350177288
10
40.750000223517418
20
179.50000350177288
0
LWPOLYLINE
5
209
100
AcDbEntity
8
0
100
AcDbPolyline
90
4
70
1
43
0.0
10
235.00000022351742
20
153.75000350177288
10
235.00000022351742
20
179.50000350177288
10
209.25000022351747
20
179.50000350177288
10
209.25000022351747
20
153.75000350177288
0
LWPOLYLINE
5
210
100
AcDbEntity
8
0
100
AcDbPolyline
90
4
70
1
43
0.0
10
40.750000223517418
20
179.50000350177288
10
15.000000223517418
20
179.50000350177288
10
15.000000223517418
20
153.75000350177288
10
40.750000223517418
20
153.75000350177288
0
LWPOLYLINE
5
211
100
AcDbEntity
8
0
100
AcDbPolyline
90
4
70
1
43
0.0
10
207.25000022351742
20
126.00000350177289
10
207.25000022351742
20
151.75000350177288
10
181.50000022351742
20
151.75000350177288
10
181.50000022351742
20
126.00000350177289
0
LWPOLYLINE
5
212
100
AcDbEntity
8
0
100
AcDbPolyline
90
4
70
1
43
0.0
10
124.00000022351742
20
126.00000350177289
10
124.00000022351742
20
151.75000350177288
10
98.250000223517418
20
151.75000350177288
10
98.250000223517418
20
126.00000350177289
0
LWPOLYLINE
5
213
100
AcDbEntity
8
0
100
AcDbPolyline
90
4
70
1
43
0.0
10
235.00000022351742
20
179.50000350177288
10
209.25000022351747
20
179.50000350177288
10
209.25000022351747
20
153.75000350177288
10
235.00000022351742
20
153.75000350177288
0
LWPOLYLINE
5
214
100
AcDbEntity
8
0
100
AcDbPolyline
90
4
70
1
43
0.0
10
40.750000223517418
20
151.75000350177288
10
15.000000223517418
20
151.75000350177288
10
15.000000223517418
20
126.00000350177289
10
40.750000223517418
20
126.00000350177289
0
LWPOLYLINE
5
215
100
AcDbEntity
8
0
100
AcDbPolyline
90
4
70
1
43
0.0
10
96.250000223517418
20
151.75000350177288
10
70.500000223517404
20
151.75000350177288
10
70.500000223517404
20
126.00000350177289
10
96.250000223517418
20
126.00000350177289
0
LWPOLYLINE
5
216
100
AcDbEntity
8
0
100
AcDbPolyline
90
4
70
1
43
0.0
10
15.000000223517418
20
179.50000350177288
10
15.000000223517418
20
153.75000350177288
10
40.750000223517418
20
153.75000350177288
10
40.750000223517418
20
179.50000350177288
0
LWPOLYLINE
5
217
100
AcDbEntity
8
0
100
AcDbPolyline
90
4
70
1
43
0.0
10
42.750000223517411
20
179.50000350177288
10
42.750000223517411
20
153.75000350177288
10
68.500000223517418
20
153.75000350177288
10
68.500000223517418
20
179.50000350177288
0
LWPOLYLINE
5
218
100
AcDbEntity
8
0
100
AcDbPolyline
90
4
70
1
43
0.0
10
42.750000223517411
20
179.50000350177288
10
42.750000223517411
20
153.75000350177288
10
68.500000223517418
20
153.75000350177288
10
68.500000223517418
20
179.50000350177288
0
LWPOLYLINE
5
219
100
AcDbEntity
8
0
100
AcDbPolyline
90
4
70
1
43
0.0
10
40.750000223517418
20
179.50000350177288
10
15.000000223517418
20
179.50000350177288
10
15.000000223517418
20
153.75000350177288
10
40.750000223517418
20
153.75000350177288
0
LWPOLYLINE
5
220
100
AcDbEntity
8
0
100
AcDbPolyline
90
4
70
1
43
0.0
10
40.750000223517418
20
126.00000350177289
10
40.750000223517418
20
151.75000350177288
10
15.000000223517418
20
151.75000350177288
10
15.000000223517418
20
126.00000350177289
0
LWPOLYLINE
5
221
100
AcDbEntity
8
0
100
AcDbPolyline
90
4
70
1
43
0.0
10
70.500000223517418
20
153.75000350177288
10
96.250000223517418
20
153.75000350177288
10
96.250000223517418
20
179.50000350177288
10
70.500000223517418
20
179.50000350177288
0
LWPOLYLINE
5
222
100
AcDbEntity
8
0
100
AcDbPolyline
90
4
70
1
43
0.0
10
15.000000223517418
20
179.50000350177288
10
15.000000223517418
20
153.75000350177288
10
40.750000223517418
20
153.75000350177288
10
40.750000223517418
20
179.50000350177288
0
LWPOLYLINE
5
223
100
AcDbEntity
8
0
100
AcDbPolyline
90
4
70
1
43
0.0
10
70.500000223517404
20
151.75000350177288
10
70.500000223517404
20
126.00000350177289
10
96.250000223517418
20
126.00000350177289
10
96.250000223517418
20
151.75000350177288
0
LWPOLYLINE
5
224
100
AcDbEntity
8
0
100
AcDbPolyline
90
4
70
1
43
0.0
10
40.750000223517418
20
153.75000350177288
10
40.750000223517418
20
179.50000350177288
10
15.000000223517418
20
179.50000350177288
10
15.000000223517418
20
153.75000350177288
0
LWPOLYLINE
5
225
100
AcDbEntity
8
0
100
AcDbPolyline
90
4
70
1
43
0.0
10
15.000000223517418
20
179.50000350177288
10
15.000000223517418
20
153.75000350177288
10
40.750000223517418
20
153.75000350177288
10
40.750000223517418
20
179.50000350177288
0
LWPOLYLINE
5
226
100
AcDbEntity
8
0
100
AcDbPolyline
90
4
70
1
43
0.0
10
126.00000022351743
20
179.50000350177288
10
126.00000022351743
20
153.75000350177288
10
151.75000022351742
20
153.75000350177288
10
151.75000022351742
20
179.50000350177288
0
LWPOLYLINE
5
227
100
AcDbEntity
8
0
100
AcDbPolyline
90
4
70
1
43
0.0
10
151.75000022351742
20
153.75000350177288
10
151.75000022351742
20
179.50000350177288
10
126.00000022351743
20
179.50000350177288
10
126.00000022351743
20
153.75000350177288
0
LWPOLYLINE
5
228
100
AcDbEntity
8
0
100
AcDbPolyline
90
4
70
1
43
0.0
10
151.75000022351742
20
179.50000350177288
10
126.00000022351743
20
179.50000350177288
10
126.00000022351743
20
153.75000350177288
10
151.75000022351742
20
153.75000350177288
0
LWPOLYLINE
5
229
100
AcDbEntity
8
0
100
AcDbPolyline
90
4
70
1
43
0.0
10
179.50000022351745
20
126.00000350177289
10
179.50000022351745
20
151.75000350177288
10
153.75000022351745
20
151.75000350177288
10
153.75000022351745
20
126.00000350177289
0
LWPOLYLINE
5
230
100
AcDbEntity
8
0
100
AcDbPolyline
90
4
70
1
43
0.0
10
179.50000022351745
20
153.75000350177288
10
179.50000022351745
20
179.50000350177288
10
153.75000022351742
20
179.50000350177288
10
153.75000022351742
20
153.75000350177288
0
LWPOLYLINE
5
231
100
AcDbEntity
8
0
100
AcDbPolyline
90
4
70
1
43
0.0
10
209.25000022351742
20
151.75000350177288
10
209.25000022351742
20
126.00000350177289
10
235.00000022351742
20
126.00000350177289
10
235.00000022351742
20
151.75000350177288
0
LWPOLYLINE
5
232
100
AcDbEntity
8
0
100
AcDbPolyline
90
4
70
1
43
0.0
10
179.50000022351745
20
153.75000350177288
10
179.50000022351745
20
179.50000350177288
10
153.75000022351742
20
179.50000350177288
10
153.75000022351742
20
153.75000350177288
0
LWPOLYLINE
5
233
100
AcDbEntity
8
0
100
AcDbPolyline
90
4
70
1
43
0.0
10
126.00000022351743
20
153.75000350177288
10
151.75000022351742
20
153.75000350177288
10
151.75000022351742
20
179.50000350177288
10
126.00000022351743
20
179.50000350177288
0
LWPOLYLINE
5
234
100
AcDbEntity
8
0
100
AcDbPolyline
90
4
70
1
43
0.0
10
209.25000022351742
20
151.75000350177288
10
209.25000022351742
20
126.00000350177289
10
235.00000022351742
20
126.00000350177289
10
235.00000022351742
20
151.75000350177288
0
LWPOLYLINE
5
235
100
AcDbEntity
8
0
100
AcDbPolyline
90
4
70
1
43
0.0
10
15.000000223517418
20
179.50000350177288
10
15.000000223517418
20
153.75000350177288
10
40.750000223517418
20
153.75000350177288
10
40.750000223517418
20
179.50000350177288
0
LWPOLYLINE
5
236
100
AcDbEntity
8
0
100
AcDbPolyline
90
4
70
1
43
0.0
10
126.00000022351743
20
153.75000350177288
10
151.75000022351742
20
153.75000350177288
10
151.75000022351742
20
179.50000350177288
10
126.00000022351743
20
179.50000350177288
0
LWPOLYLINE
5
237
100
AcDbEntity
8
0
100
AcDbPolyline
90
4
70
1
43
0.0
10
235.00000022351742
20
151.75000350177288
10
209.25000022351742
20
151.75000350177288
10
209.25000022351742
20
126.00000350177289
10
235.00000022351742
20
126.00000350177289
0
LWPOLYLINE
5
238
100
AcDbEntity
8
0
100
AcDbPolyline
90
4
70
1
43
0.0
10
15.000000223517418
20
153.75000350177288
10
40.750000223517418
20
153.75000350177288
10
40.750000223517418
20
179.50000350177288
10
15.000000223517418
20
179.50000350177288
0
LWPOLYLINE
5
239
100
AcDbEntity
8
0
100
AcDbPolyline
90
4
70
1
43
0.0
10
151.75000022351742
20
151.75000350177288
10
126.00000022351743
20
151.75000350177288
10
126.00000022351743
20
126.00000350177289
10
151.75000022351742
20
126.00000350177289
0
LWPOLYLINE
5
240
100
AcDbEntity
8
0
100
AcDbPolyline
90
4
70
1
43
0.0
10
181.50000022351742
20
126.00000350177289
10
207.25000022351742
20
126.00000350177289
10
207.25000022351742
20
151.75000350177288
10
181.50000022351742
20
151.75000350177288
0
LWPOLYLINE
5
241
100
AcDbEntity
8
0
100
AcDbPolyline
90
4
70
1
43
0.0
10
151.75000022351742
20
179.50000350177288
10
126.00000022351743
20
179.50000350177288
10
126.00000022351743
20
153.75000350177288
10
151.75000022351742
20
153.75000350177288
0
LWPOLYLINE
5
242
100
AcDbEntity
8
0
100
AcDbPolyline
90
4
70
1
43
0.0
10
235.00000022351742
20
151.75000350177288
10
209.25000022351742
20
151.75000350177288
10
209.25000022351742
20
126.00000350177289
10
235.00000022351742
20
126.00000350177289
0
LWPOLYLINE
5
243
100
AcDbEntity
8
0
100
AcDbPolyline
90
4
70
1
43
0.0
10
153.75000022351742
20
179.50000350177288
10
153.75000022351742
20
153.75000350177288
10
179.50000022351745
20
153.75000350177288
10
179.50000022351745
20
179.50000350177288
0
LWPOLYLINE
5
244
100
AcDbEntity
8
0
100
AcDbPolyline
90
4
70
1
43
0.0
10
179.50000022351745
20
151.75000350177288
10
153.75000022351745
20
151.75000350177288
10
153.75000022351745
20
126.00000350177289
10
179.50000022351745
20
126.00000350177289
0
LWPOLYLINE
5
245
100
AcDbEntity
8
0
100
AcDbPolyline
90
4
70
1
43
0.0
10
209.25000022351747
20
179.50000350177288
10
209.25000022351747
20
153.75000350177288
10
235.00000022351742
20
153.75000350177288
10
235.00000022351742
20
179.50000350177288
0
LWPOLYLINE
5
246
100
AcDbEntity
8
0
100
AcDbPolyline
90
4
70
1
43
0.0
10
151.75000022351742
20
179.50000350177288
10
126.00000022351743
20
179.50000350177288
10
126.00000022351743
20
153.75000350177288
10
151.75000022351742
20
153.75000350177288
0
LWPOLYLINE
5
247
100
AcDbEntity
8
0
100
AcDbPolyline
90
4
70
1
43
0.0
10
126.00000022351743
20
179.50000350177288
10
126.00000022351743
20
153.75000350177288
10
151.75000022351742
20
153.75000350177288
10
151.75000022351742
20
179.50000350177288
0
LWPOLYLINE
5
248
100
AcDbEntity
8
0
100
AcDbPolyline
90
4
70
1
43
0.0
10
207.25000022351742
20
126.00000350177289
10
207.25000022351742
20
151.75000350177288
10
181.50000022351742
20
151.75000350177288
10
181.50000022351742
20
126.00000350177289
0
LWPOLYLINE
5
249
100
AcDbEntity
8
0
100
AcDbPolyline
90
4
70
1
43
0.0
10
68.500000223517418
20
151.75000350177288
10
42.750000223517418
20
151.75000350177288
10
42.750000223517418
20
126.00000350177289
10
68.500000223517418
20
126.00000350177289
0
LWPOLYLINE
5
250
100
AcDbEntity
8
0
100
AcDbPolyline
90
4
70
1
43
0.0
10
68.500000223517418
20
126.00000350177289
10
68.500000223517418
20
151.75000350177288
10
42.750000223517418
20
151.75000350177288
10
42.750000223517418
20
126.00000350177289
0
LWPOLYLINE
5
251
100
AcDbEntity
8
0
100
AcDbPolyline
90
4
70
1
43
0.0
10
42.750000223517418
20
151.75000350177288
10
42.750000223517418
20
126.00000350177289
10
68.500000223517418
20
126.00000350177289
10
68.500000223517418
20
151.75000350177288
0
LWPOLYLINE
5
252
100
AcDbEntity
8
0
100
AcDbPolyline
90
4
70
1
43
0.0
10
124.00000022351742
20
179.50000350177288
10
98.250000223517432
20
179.50000350177288
10
98.250000223517432
20
153.75000350177288
10
124.00000022351742
20
153.75000350177288
0
LWPOLYLINE
5
253
100
AcDbEntity
8
0
100
AcDbPolyline
90
4
70
1
43
0.0
10
15.000000223517418
20
153.75000350177288
10
40.750000223517418
20
153.75000350177288
10
40.750000223517418
20
179.50000350177288
10
15.000000223517418
20
179.50000350177288
0
LWPOLYLINE
5
254
100
AcDbEntity
8
0
100
AcDbPolyline
90
4
70
1
43
0.0
10
40.750000223517418
20
153.75000350177288
10
40.750000223517418
20
179.50000350177288
10
15.000000223517418
20
179.50000350177288
10
15.000000223517418
20
153.75000350177288
0
LWPOLYLINE
5
255
100
AcDbEntity
8
0
100
AcDbPolyline
90
4
70
1
43
0.0
10
98.250000223517432
20
179.50000350177288
10
98.250000223517432
20
153.75000350177288
10
124.00000022351742
20
153.75000350177288
10
124.00000022351742
20
179.50000350177288
0
LWPOLYLINE
5
256
100
AcDbEntity
8
0
100
AcDbPolyline
90
4
70
1
43
0.0
10
70.500000223517418
20
153.75000350177288
10
96.250000223517418
20
153.75000350177288
10
96.250000223517418
20
179.50000350177288
10
70.500000223517418
20
179.50000350177288
0
LWPOLYLINE
5
257
100
AcDbEntity
8
0
100
AcDbPolyline
90
4
70
1
43
0.0
10
124.00000022351742
20
151.75000350177288
10
98.250000223517418
20
151.75000350177288
10
98.250000223517418
20
126.00000350177289
10
124.00000022351742
20
126.00000350177289
0
LWPOLYLINE
5
258
100
AcDbEntity
8
0
100
AcDbPolyline
90
4
70
1
43
0.0
10
124.00000022351742
20
179.50000350177288
10
98.250000223517432
20
179.50000350177288
10
98.250000223517432
20
153.75000350177288
10
124.00000022351742
20
153.75000350177288
0
LWPOLYLINE
5
259
100
AcDbEntity
8
0
100
AcDbPolyline
90
4
70
1
43
0.0
10
181.50000022351745
20
179.50000350177288
10
181.50000022351745
20
153.75000350177288
10
207.25000022351742
20
153.75000350177288
10
207.25000022351742
20
179.50000350177288
0
LWPOLYLINE
5
260
100
AcDbEntity
8
0
100
AcDbPolyline
90
4
70
1
43
0.0
10
42.750000223517418
20
126.00000350177289
10
68.500000223517418
20
126.00000350177289
10
68.500000223517418
20
151.75000350177288
10
42.750000223517418
20
151.75000350177288
0
LWPOLYLINE
5
261
100
AcDbEntity
8
0
100
AcDbPolyline
90
4
70
1
43
0.0
10
153.75000022351745
20
151.75000350177288
10
153.75000022351745
20
126.00000350177289
10
179.50000022351745
20
126.00000350177289
10
179.50000022351745
20
151.75000350177288
0
LWPOLYLINE
5
262
100
AcDbEntity
8
0
100
AcDbPolyline
90
4
70
1
43
0.0
10
126.00000022351743
20
153.75000350177288
10
151.75000022351742
20
153.75000350177288
10
151.75000022351742
20
179.50000350177288
10
126.00000022351743
20
179.50000350177288
0
LWPOLYLINE
5
263
100
AcDbEntity
8
0
100
AcDbPolyline
90
4
70
1
43
0.0
10
179.50000022351745
20
126.00000350177289
10
179.50000022351745
20
151.75000350177288
10
153.75000022351745
20
151.75000350177288
10
153.75000022351745
20
126.00000350177289
0
LWPOLYLINE
5
264
100
AcDbEntity
8
0
100
AcDbPolyline
90
4
70
1
43
0.0
10
68.500000223517418
20
179.50000350177288
10
42.750000223517411
20
179.50000350177288
10
42.750000223517411
20
153.75000350177288
10
68.500000223517418
20
153.75000350177288
0
LWPOLYLINE
5
265
100
AcDbEntity
8
0
100
AcDbPolyline
90
4
70
1
43
0.0
10
70.500000223517404
20
151.75000350177288
10
70.500000223517404
20
126.00000350177289
10
96.250000223517418
20
126.00000350177289
10
96.250000223517418
20
151.75000350177288
0
LWPOLYLINE
5
266
100
AcDbEntity
8
0
100
AcDbPolyline
90
4
70
1
43
0.0
10
98.250000223517418
20
151.75000350177288
10
98.250000223517418
20
126.00000350177289
10
124.00000022351742
20
126.00000350177289
10
124.00000022351742
20
151.75000350177288
0
LWPOLYLINE
5
267
100
AcDbEntity
8
0
100
AcDbPolyline
90
4
70
1
43
0.0
10
70.500000223517404
20
126.00000350177289
10
96.250000223517418
20
126.00000350177289
10
96.250000223517418
20
151.75000350177288
10
70.500000223517404
20
151.75000350177288
0
LWPOLYLINE
5
268
100
AcDbEntity
8
0
100
AcDbPolyline
90
4
70
1
43
0.0
10
126.00000022351743
20
153.75000350177288
10
151.75000022351742
20
153.75000350177288
10
151.75000022351742
20
179.50000350177288
10
126.00000022351743
20
179.50000350177288
0
LWPOLYLINE
5
269
100
AcDbEntity
8
0
100
AcDbPolyline
90
4
70
1
43
0.0
10
126.00000022351743
20
151.75000350177288
10
126.00000022351743
20
126.00000350177289
10
151.75000022351742
20
126.00000350177289
10
151.75000022351742
20
151.75000350177288
0
LWPOLYLINE
5
270
100
AcDbEntity
8
0
100
AcDbPolyline
90
4
70
1
43
0.0
10
151.75000022351742
20
179.50000350177288
10
126.00000022351743
20
179.50000350177288
10
126.00000022351743
20
153.75000350177288
10
151.75000022351742
20
153.75000350177288
0
LWPOLYLINE
5
271
100
AcDbEntity
8
0
100
AcDbPolyline
90
4
70
1
43
0.0
10
124.00000022351742
20
153.75000350177288
10
124.00000022351742
20
179.50000350177288
10
98.250000223517432
20
179.50000350177288
10
98.250000223517432
20
153.75000350177288
0
LWPOLYLINE
5
272
100
AcDbEntity
8
0
100
AcDbPolyline
90
4
70
1
43
0.0
10
126.00000022351743
20
151.75000350177288
10
126.00000022351743
20
126.00000350177289
10
151.75000022351742
20
126.00000350177289
10
151.75000022351742
20
151.75000350177288
0
LWPOLYLINE
5
273
100
AcDbEntity
8
0
100
AcDbPolyline
90
4
70
1
43
0.0
10
207.25000022351742
20
151.75000350177288
10
181.50000022351742
20
151.75000350177288
10
181.50000022351742
20
126.00000350177289
10
207.25000022351742
20
126.00000350177289
0
LWPOLYLINE
5
274
100
AcDbEntity
8
0
100
AcDbPolyline
90
4
70
1
43
0.0
10
42.750000223517411
20
153.75000350177288
10
68.500000223517418
20
153.75000350177288
10
68.500000223517418
20
179.50000350177288
10
42.750000223517411
20
179.50000350177288
0
LWPOLYLINE
5
275
100
AcDbEntity
8
0
100
AcDbPolyline
90
4
70
1
43
0.0
10
96.250000223517418
20
179.50000350177288
10
70.500000223517418
20
179.50000350177288
10
70.500000223517418
20
153.75000350177288
10
96.250000223517418
20
153.75000350177288
0
LWPOLYLINE
5
276
100
AcDbEntity
8
0
100
AcDbPolyline
90
4
70
1
43
0.0
10
181.50000022351745
20
179.50000350177288
10
181.50000022351745
20
153.75000350177288
10
207.25000022351742
20
153.75000350177288
10
207.25000022351742
20
179.50000350177288
0
LWPOLYLINE
5
277
100
AcDbEntity
8
0
100
AcDbPolyline
90
4
70
1
43
0.0
10
40.750000223517418
20
98.250003501772881
10
40.750000223517418
20
124.00000350177287
10
15.000000223517418
20
124.00000350177287
10
15.000000223517418
20
98.250003501772881
0
LWPOLYLINE
5
278
100
AcDbEntity
8
0
100
AcDbPolyline
90
4
70
1
43
0.0
10
209.25000022351742
20
15.000003501772881
10
235.00000022351742
20
15.000003501772881
10
235.00000022351742
20
40.750003501772873
10
209.25000022351742
20
40.750003501772873
0
LWPOLYLINE
5
279
100
AcDbEntity
8
0
100
AcDbPolyline
90
4
70
1
43
0.0
10
235.00000022351742
20
96.250003501772881
10
209.25000022351742
20
96.250003501772881
10
209.25000022351742
20
70.500003501772881
10
235.00000022351742
20
70.500003501772881
0
LWPOLYLINE
5
280
100
AcDbEntity
8
0
100
AcDbPolyline
90
4
70
1
43
0.0
10
126.00000022351743
20
40.750003501772873
10
126.00000022351743
20
15.000003501772881
10
151.75000022351742
20
15.000003501772881
10
151.75000022351742
20
40.750003501772873
0
LWPOLYLINE
5
281
100
AcDbEntity
8
0
100
AcDbPolyline
90
4
70
1
43
0.0
10
126.00000022351743
20
68.500003501772852
10
126.00000022351743
20
42.750003501772866
10
151.75000022351742
20
42.750003501772866
10
151.75000022351742
20
68.500003501772852
0
LWPOLYLINE
5
282
100
AcDbEntity
8
0
100
AcDbPolyline
90
4
70
1
43
0.0
10
70.500000223517418
20
98.250003501772881
10
96.250000223517418
20
98.250003501772881
10
96.250000223517418
20
124.00000350177287
10
70.500000223517418
20
124.00000350177287
0
LWPOLYLINE
5
283
100
AcDbEntity
8
0
100
AcDbPolyline
90
4
70
1
43
0.0
10
15.000000223517418
20
98.250003501772881
10
40.750000223517418
20
98.250003501772881
10
40.750000223517418
20
124.00000350177287
10
15.000000223517418
20
124.00000350177287
0
LWPOLYLINE
5
284
100
AcDbEntity
8
0
100
AcDbPolyline
90
4
70
1
43
0.0
10
209.25000022351747
20
98.250003501772881
10
235.00000022351742
20
98.250003501772881
10
235.00000022351742
20
124.00000350177287
10
209.25000022351747
20
124.00000350177287
0
LWPOLYLINE
5
285
100
AcDbEntity
8
0
100
AcDbPolyline
90
4
70
1
43
0.0
10
179.50000022351745
20
68.500003501772852
10
153.75000022351742
20
68.500003501772852
10
153.75000022351742
20
42.750003501772866
10
179.50000022351745
20
42.750003501772866
0
LWPOLYLINE
5
286
100
AcDbEntity
8
0
100
AcDbPolyline
90
4
70
1
43
0.0
10
15.000000223517418
20
124.00000350177287
10
15.000000223517418
20
98.250003501772881
10
40.750000223517418
20
98.250003501772881
10
40.750000223517418
20
124.00000350177287
0
LWPOLYLINE
5
287
100
AcDbEntity
8
0
100
AcDbPolyline
90
4
70
1
43
0.0
10
124.00000022351742
20
68.500003501772852
10
98.250000223517432
20
68.500003501772852
10
98.250000223517432
20
42.750003501772866
10
124.00000022351742
20
42.750003501772866
0
LWPOLYLINE
5
288
100
AcDbEntity
8
0
100
AcDbPolyline
90
4
70
1
43
0.0
10
181.50000022351742
20
96.250003501772881
10
181.50000022351742
20
70.500003501772881
10
207.25000022351742
20
70.500003501772881
10
207.25000022351742
20
96.250003501772881
0
LWPOLYLINE
5
289
100
AcDbEntity
8
0
100
AcDbPolyline
90
4
70
1
43
0.0
10
207.25000022351742
20
70.500003501772881
10
207.25000022351742
20
96.250003501772881
10
181.50000022351742
20
96.250003501772881
10
181.50000022351742
20
70.500003501772881
0
LWPOLYLINE
5
290
100
AcDbEntity
8
0
100
AcDbPolyline
90
4
70
1
43
0.0
10
207.25000022351742
20
40.750003501772873
10
181.50000022351742
20
40.750003501772873
10
181.50000022351742
20
15.000003501772881
10
207.25000022351742
20
15.000003501772881
0
LWPOLYLINE
5
291
100
AcDbEntity
8
0
100
AcDbPolyline
90
4
70
1
43
0.0
10
153.75000022351745
20
96.250003501772881
10
153.75000022351745
20
70.500003501772881
10
179.50000022351745
20
70.500003501772881
10
179.50000022351745
20
96.250003501772881
0
LWPOLYLINE
5
292
100
AcDbEntity
8
0
100
AcDbPolyline
90
4
70
1
43
0.0
10
179.50000022351745
20
98.250003501772881
10
179.50000022351745
20
124.00000350177287
10
153.75000022351742
20
124.00000350177287
10
153.75000022351742
20
98.250003501772881
0
LWPOLYLINE
5
293
100
AcDbEntity
8
0
100
AcDbPolyline
90
4
70
1
43
0.0
10
68.500000223517418
20
98.250003501772881
10
68.500000223517418
20
124.00000350177287
10
42.750000223517411
20
124.00000350177287
10
42.750000223517411
20
98.250003501772881
0
LWPOLYLINE
5
294
100
AcDbEntity
8
0
100
AcDbPolyline
90
4
70
1
43
0.0
10
68.500000223517418
20
15.000003501772881
10
68.500000223517418
20
40.750003501772873
10
42.750000223517418
20
40.750003501772873
10
42.750000223517418
20
15.000003501772881
0
LWPOLYLINE
5
295
100
AcDbEntity
8
0
100
AcDbPolyline
90
4
70
1
43
0.0
10
40.750000223517418
20
98.250003501772881
10
40.750000223517418
20
124.00000350177287
10
15.000000223517418
20
124.00000350177287
10
15.000000223517418
20
98.250003501772881
0
LWPOLYLINE
5
296
100
AcDbEntity
8
0
100
AcDbPolyline
90
4
70
1
43
0.0
10
124.00000022351742
20
42.750003501772866
10
124.00000022351742
20
68.500003501772852
10
98.250000223517432
20
68.500003501772852
10
98.250000223517432
20
42.750003501772866
0
LWPOLYLINE
5
297
100
AcDbEntity
8
0
100
AcDbPolyline
90
4
70
1
43
0.0
10
151.75000022351742
20
70.500003501772881
10
151.75000022351742
20
96.250003501772881
10
126.00000022351743
20
96.250003501772881
10
126.00000022351743
20
70.500003501772881
0
LWPOLYLINE
5
298
100
AcDbEntity
8
0
100
AcDbPolyline
90
4
70
1
43
0.0
10
15.000000223517418
20
98.250003501772881
10
40.750000223517418
20
98.250003501772881
10
40.750000223517418
20
124.00000350177287
10
15.000000223517418
20
124.00000350177287
0
LWPOLYLINE
5
299
100
AcDbEntity
8
0
100
AcDbPolyline
90
4
70
1
43
0.0
10
15.000000223517418
20
96.250003501772881
10
15.000000223517418
20
70.500003501772881
10
40.750000223517418
20
70.500003501772881
10
40.750000223517418
20
96.250003501772881
0
LWPOLYLINE
5
300
100
AcDbEntity
8
0
100
AcDbPolyline
90
4
70
1
43
0.0
10
96.250000223517418
20
124.00000350177287
10
70.500000223517418
20
124.00000350177287
10
70.500000223517418
20
98.250003501772881
10
96.250000223517418
20
98.250003501772881
0
LWPOLYLINE
5
301
100
AcDbEntity
8
0
100
AcDbPolyline
90
4
70
1
43
0.0
10
15.000000223517418
20
98.250003501772881
10
40.750000223517418
20
98.250003501772881
10
40.750000223517418
20
124.00000350177287
10
15.000000223517418
20
124.00000350177287
0
LWPOLYLINE
5
302
100
AcDbEntity
8
0
100
AcDbPolyline
90
4
70
1
43
0.0
10
15.000000223517418
20
98.250003501772881
10
40.750000223517418
20
98.250003501772881
10
40.750000223517418
20
124.00000350177287
10
15.000000223517418
20
124.00000350177287
0
LWPOLYLINE
5
303
100
AcDbEntity
8
0
100
AcDbPolyline
90
4
70
1
43
0.0
10
15.000000223517418
20
70.500003501772881
10
40.750000223517418
20
70.500003501772881
10
40.750000223517418
20
96.250003501772881
10
15.000000223517418
20
96.250003501772881
0
LWPOLYLINE
5
304
100
AcDbEntity
8
0
100
AcDbPolyline
90
4
70
1
43
0.0
10
96.250000223517418
20
98.250003501772881
10
96.250000223517418
20
124.00000350177287
10
70.500000223517418
20
124.00000350177287
10
70.500000223517418
20
98.250003501772881
0
LWPOLYLINE
5
305
100
AcDbEntity
8
0
100
AcDbPolyline
90
4
70
1
43
0.0
10
15.000000223517418
20
124.00000350177287
10
15.000000223517418
20
98.250003501772881
10
40.750000223517418
20
98.250003501772881
10
40.750000223517418
20
124.00000350177287
0
LWPOLYLINE
5
306
100
AcDbEntity
8
0
100
AcDbPolyline
90
4
70
1
43
0.0
10
96.250000223517418
20
124.00000350177287
10
70.500000223517418
20
124.00000350177287
10
70.500000223517418
20
98.250003501772881
10
96.250000223517418
20
98.250003501772881
0
LWPOLYLINE
5
307
100
AcDbEntity
8
0
100
AcDbPolyline
90
4
70
1
43
0.0
10
40.750000223517418
20
124.00000350177287
10
15.000000223517418
20
124.00000350177287
10
15.000000223517418
20
98.250003501772881
10
40.750000223517418
20
98.250003501772881
0
LWPOLYLINE
5
308
100
AcDbEntity
8
0
100
AcDbPolyline
90
4
70
1
43
0.0
10
40.750000223517418
20
124.00000350177287
10
15.000000223517418
20
124.00000350177287
10
15.000000223517418
20
98.250003501772881
10
40.750000223517418
20
98.250003501772881
0
LWPOLYLINE
5
309
100
AcDbEntity
8
0
100
AcDbPolyline
90
4
70
1
43
0.0
10
40.750000223517418
20
124.00000350177287
10
15.000000223517418
20
124.00000350177287
10
15.000000223517418
20
98.250003501772881
10
40.750000223517418
20
98.250003501772881
0
LWPOLYLINE
5
310
100
AcDbEntity
8
0
100
AcDbPolyline
90
4
70
1
43
0.0
10
124.00000022351742
20
96.250003501772881
10
98.250000223517418
20
96.250003501772881
10
98.250000223517418
20
70.500003501772881
10
124.00000022351742
20
70.500003501772881
0
LWPOLYLINE
5
311
100
AcDbEntity
8
0
100
AcDbPolyline
90
4
70
1
43
0.0
10
207.25000022351742
20
68.500003501772852
10
181.50000022351745
20
68.500003501772852
10
181.50000022351745
20
42.750003501772866
10
207.25000022351742
20
42.750003501772866
0
LWPOLYLINE
5
312
100
AcDbEntity
8
0
100
AcDbPolyline
90
4
70
1
43
0.0
10
181.50000022351745
20
68.500003501772852
10
181.50000022351745
20
42.750003501772866
10
207.25000022351742
20
42.750003501772866
10
207.25000022351742
20
68.500003501772852
0
LWPOLYLINE
5
313
100
AcDbEntity
8
0
100
AcDbPolyline
90
4
70
1
43
0.0
10
126.00000022351743
20
68.500003501772852
10
126.00000022351743
20
42.750003501772866
10
151.75000022351742
20
42.750003501772866
10
151.75000022351742
20
68.500003501772852
0
LWPOLYLINE
5
314
100
AcDbEntity
8
0
100
AcDbPolyline
90
4
70
1
43
0.0
10
151.75000022351742
20
42.750003501772866
10
151.75000022351742
20
68.500003501772852
10
126.00000022351743
20
68.500003501772852
10
126.00000022351743
20
42.750003501772866
0
LWPOLYLINE
5
315
100
AcDbEntity
8
0
100
AcDbPolyline
90
4
70
1
43
0.0
10
126.00000022351743
20
42.750003501772866
10
151.75000022351742
20
42.750003501772866
10
151.75000022351742
20
68.500003501772852
10
126.00000022351743
20
68.500003501772852
0
LWPOLYLINE
5
316
100
AcDbEntity
8
0
100
AcDbPolyline
90
4
70
1
43
0.0
10
179.50000022351745
20
15.000003501772881
10
179.50000022351745
20
40.750003501772873
10
153.75000022351745
20
40.750003501772873
10
153.75000022351745
20
15.000003501772881
0
LWPOLYLINE
5
317
100
AcDbEntity
8
0
100
AcDbPolyline
90
4
70
1
43
0.0
10
124.00000022351742
20
42.750003501772866
10
124.00000022351742
20
68.500003501772852
10
98.250000223517432
20
68.500003501772852
10
98.250000223517432
20
42.750003501772866
0
LWPOLYLINE
5
318
100
AcDbEntity
8
0
100
AcDbPolyline
90
4
70
1
43
0.0
10
153.75000022351745
20
15.000003501772881
10
179.50000022351745
20
15.000003501772881
10
179.50000022351745
20
40.750003501772873
10
153.75000022351745
20
40.750003501772873
0
LWPOLYLINE
5
319
100
AcDbEntity
8
0
100
AcDbPolyline
90
4
70
1
43
0.0
10
15.000000223517418
20
124.00000350177287
10
15.000000223517418
20
98.250003501772881
10
40.750000223517418
20
98.250003501772881
10
40.750000223517418
20
124.00000350177287
0
LWPOLYLINE
5
320
100
AcDbEntity
8
0
100
AcDbPolyline
90
4
70
1
43
0.0
10
126.00000022351743
20
15.000003501772881
10
151.75000022351742
20
15.000003501772881
10
151.75000022351742
20
40.750003501772873
10
126.00000022351743
20
40.750003501772873
0
LWPOLYLINE
5
321
100
AcDbEntity
8
0
100
AcDbPolyline
90
4
70
1
43
0.0
10
207.25000022351742
20
68.500003501772852
10
181.50000022351745
20
68.500003501772852
10
181.50000022351745
20
42.750003501772866
10
207.25000022351742
20
42.750003501772866
0
LWPOLYLINE
5
322
100
AcDbEntity
8
0
100
AcDbPolyline
90
4
70
1
43
0.0
10
209.25000022351742
20
40.750003501772873
10
209.25000022351742
20
15.000003501772881
10
235.00000022351742
20
15.000003501772881
10
235.00000022351742
20
40.750003501772873
0
LWPOLYLINE
5
323
100
AcDbEntity
8
0
100
AcDbPolyline
90
4
70
1
43
0.0
10
96.250000223517418
20
68.500003501772852
10
70.500000223517418
20
68.500003501772852
10
70.500000223517418
20
42.750003501772866
10
96.250000223517418
20
42.750003501772866
0
LWPOLYLINE
5
324
100
AcDbEntity
8
0
100
AcDbPolyline
90
4
70
1
43
0.0
10
153.75000022351742
20
68.500003501772852
10
153.75000022351742
20
42.750003501772866
10
179.50000022351745
20
42.750003501772866
10
179.50000022351745
20
68.500003501772852
0
LWPOLYLINE
5
325
100
AcDbEntity
8
0
100
AcDbPolyline
90
4
70
1
43
0.0
10
126.00000022351743
20
42.750003501772866
10
151.75000022351742
20
42.750003501772866
10
151.75000022351742
20
68.500003501772852
10
126.00000022351743
20
68.500003501772852
0
LWPOLYLINE
5
326
100
AcDbEntity
8
0
100
AcDbPolyline
90
4
70
1
43
0.0
10
126.00000022351743
20
68.500003501772852
10
126.00000022351743
20
42.750003501772866
10
151.75000022351742
20
42.750003501772866
10
151.75000022351742
20
68.500003501772852
0
LWPOLYLINE
5
327
100
AcDbEntity
8
0
100
AcDbPolyline
90
4
70
1
43
0.0
10
124.00000022351742
20
70.500003501772881
10
124.00000022351742
20
96.250003501772881
10
98.250000223517418
20
96.250003501772881
10
98.250000223517418
20
70.500003501772881
0
LWPOLYLINE
5
328
100
AcDbEntity
8
0
100
AcDbPolyline
90
4
70
1
43
0.0
10
179.50000022351745
20
42.750003501772866
10
179.50000022351745
20
68.500003501772852
10
153.75000022351742
20
68.500003501772852
10
153.75000022351742
20
42.750003501772866
0
LWPOLYLINE
5
329
100
AcDbEntity
8
0
100
AcDbPolyline
90
4
70
1
43
0.0
10
126.00000022351743
20
98.250003501772881
10
151.75000022351742
20
98.250003501772881
10
151.75000022351742
20
124.00000350177287
10
126.00000022351743
20
124.00000350177287
0
LWPOLYLINE
5
330
100
AcDbEntity
8
0
100
AcDbPolyline
90
4
70
1
43
0.0
10
126.00000022351743
20
68.500003501772852
10
126.00000022351743
20
42.750003501772866
10
151.75000022351742
20
42.750003501772866
10
151.75000022351742
20
68.500003501772852
0
LWPOLYLINE
5
331
100
AcDbEntity
8
0
100
AcDbPolyline
90
4
70
1
43
0.0
10
235.00000022351742
20
96.250003501772881
10
209.25000022351742
20
96.250003501772881
10
209.25000022351742
20
70.500003501772881
10
235.00000022351742
20
70.500003501772881
0
LWPOLYLINE
5
332
100
AcDbEntity
8
0
100
AcDbPolyline
90
4
70
1
43
0.0
10
151.75000022351742
20
68.500003501772852
10
126.00000022351743
20
68.500003501772852
10
126.00000022351743
20
42.750003501772866
10
151.75000022351742
20
42.750003501772866
0
LWPOLYLINE
5
333
100
AcDbEntity
8
0
100
AcDbPolyline
90
4
70
1
43
0.0
10
151.75000022351742
20
68.500003501772852
10
126.00000022351743
20
68.500003501772852
10
126.00000022351743
20
42.750003501772866
10
151.75000022351742
20
42.750003501772866
0
LWPOLYLINE
5
334
100
AcDbEntity
8
0
100
AcDbPolyline
90
4
70
1
43
0.0
10
235.00000022351742
20
42.750003501772866
10
235.00000022351742
20
68.500003501772852
10
209.25000022351747
20
68.500003501772852
10
209.25000022351747
20
42.750003501772866
0
LWPOLYLINE
5
335
100
AcDbEntity
8
0
100
AcDbPolyline
90
4
70
1
43
0.0
10
151.75000022351742
20
96.250003501772881
10
126.00000022351743
20
96.250003501772881
10
126.00000022351743
20
70.500003501772881
10
151.75000022351742
20
70.500003501772881
0
LWPOLYLINE
5
336
100
AcDbEntity
8
0
100
AcDbPolyline
90
4
70
1
43
0.0
10
124.00000022351742
20
98.250003501772881
10
124.00000022351742
20
124.00000350177287
10
98.250000223517432
20
124.00000350177287
10
98.250000223517432
20
98.250003501772881
0
LWPOLYLINE
5
337
100
AcDbEntity
8
0
100
AcDbPolyline
90
4
70
1
43
0.0
10
153.75000022351742
20
124.00000350177287
10
153.75000022351742
20
98.250003501772881
10
179.50000022351745
20
98.250003501772881
10
179.50000022351745
20
124.00000350177287
0
LWPOLYLINE
5
338
100
AcDbEntity
8
0
100
AcDbPolyline
90
4
70
1
43
0.0
10
207.25000022351742
20
68.500003501772852
10
181.50000022351745
20
68.500003501772852
10
181.50000022351745
20
42.750003501772866
10
207.25000022351742
20
42.750003501772866
0
LWPOLYLINE
5
339
100
AcDbEntity
8
0
100
AcDbPolyline
90
4
70
1
43
0.0
10
207.25000022351742
20
124.00000350177287
10
181.50000022351745
20
124.00000350177287
10
181.50000022351745
20
98.250003501772881
10
207.25000022351742
20
98.250003501772881
0
LWPOLYLINE
5
340
100
AcDbEntity
8
0
100
AcDbPolyline
90
4
70
1
43
0.0
10
15.000000223517418
20
124.00000350177287
10
15.000000223517418
20
98.250003501772881
10
40.750000223517418
20
98.250003501772881
10
40.750000223517418
20
124.00000350177287
0
LWPOLYLINE
5
341
100
AcDbEntity
8
0
100
AcDbPolyline
90
4
70
1
43
0.0
10
68.500000223517418
20
40.750003501772873
10
42.750000223517418
20
40.750003501772873
10
42.750000223517418
20
15.000003501772881
10
68.500000223517418
20
15.000003501772881
0
LWPOLYLINE
5
342
100
AcDbEntity
8
0
100
AcDbPolyline
90
4
70
1
43
0.0
10
15.000000223517418
20
40.750003501772873
10
15.000000223517418
20
15.000003501772881
10
40.750000223517418
20
15.000003501772881
10
40.750000223517418
20
40.750003501772873
0
LWPOLYLINE
5
343
100
AcDbEntity
8
0
100
AcDbPolyline
90
4
70
1
43
0.0
10
151.75000022351742
20
96.250003501772881
10
126.00000022351743
20
96.250003501772881
10
126.00000022351743
20
70.500003501772881
10
151.75000022351742
20
70.500003501772881
0
LWPOLYLINE
5
344
100
AcDbEntity
8
0
100
AcDbPolyline
90
4
70
1
43
0.0
10
42.750000223517411
20
42.750003501772866
10
68.500000223517418
20
42.750003501772866
10
68.500000223517418
20
68.500003501772852
10
42.750000223517411
20
68.500003501772852
0
LWPOLYLINE
5
345
100
AcDbEntity
8
0
100
AcDbPolyline
90
4
70
1
43
0.0
10
40.750000223517418
20
42.750003501772866
10
40.750000223517418
20
68.500003501772852
10
15.000000223517418
20
68.500003501772852
10
15.000000223517418
20
42.750003501772866
0
LWPOLYLINE
5
346
100
AcDbEntity
8
0
100
AcDbPolyline
90
4
70
1
43
0.0
10
68.500000223517418
20
68.500003501772852
10
42.750000223517411
20
68.500003501772852
10
42.750000223517411
20
42.750003501772866
10
68.500000223517418
20
42.750003501772866
0
LWPOLYLINE
5
347
100
AcDbEntity
8
0
100
AcDbPolyline
90
4
70
1
43
0.0
10
40.750000223517418
20
42.750003501772866
10
40.750000223517418
20
68.500003501772852
10
15.000000223517418
20
68.500003501772852
10
15.000000223517418
20
42.750003501772866
0
LWPOLYLINE
5
348
100
AcDbEntity
8
0
100
AcDbPolyline
90
4
70
1
43
0.0
10
40.750000223517418
20
42.750003501772866
10
40.750000223517418
20
68.500003501772852
10
15.000000223517418
20
68.500003501772852
10
15.000000223517418
20
42.750003501772866
0
LWPOLYLINE
5
349
100
AcDbEntity
8
0
100
AcDbPolyline
90
4
70
1
43
0.0
10
151.75000022351742
20
124.00000350177287
10
126.00000022351743
20
124.00000350177287
10
126.00000022351743
20
98.250003501772881
10
151.75000022351742
20
98.250003501772881
0
LWPOLYLINE
5
350
100
AcDbEntity
8
0
100
AcDbPolyline
90
4
70
1
43
0.0
10
15.000000223517418
20
40.750003501772873
10
15.000000223517418
20
15.000003501772881
10
40.750000223517418
20
15.000003501772881
10
40.750000223517418
20
40.750003501772873
0
LWPOLYLINE
5
351
100
AcDbEntity
8
0
100
AcDbPolyline
90
4
70
1
43
0.0
10
42.750000223517411
20
42.750003501772866
10
68.500000223517418
20
42.750003501772866
10
68.500000223517418
20
68.500003501772852
10
42.750000223517411
20
68.500003501772852
0
LWPOLYLINE
5
352
100
AcDbEntity
8
0
100
AcDbPolyline
90
4
70
1
43
0.0
10
42.750000223517411
20
68.500003501772852
10
42.750000223517411
20
42.750003501772866
10
68.500000223517418
20
42.750003501772866
10
68.500000223517418
20
68.500003501772852
0
LWPOLYLINE
5
353
100
AcDbEntity
8
0
100
AcDbPolyline
90
4
70
1
43
0.0
10
98.250000223517432
20
124.00000350177287
10
98.250000223517432
20
98.250003501772881
10
124.00000022351742
20
98.250003501772881
10
124.00000022351742
20
124.00000350177287
0
LWPOLYLINE
5
354
100
AcDbEntity
8
0
100
AcDbPolyline
90
4
70
1
43
0.0
10
70.500000223517404
20
40.750003501772873
10
70.500000223517404
20
15.000003501772881
10
96.250000223517418
20
15.000003501772881
10
96.250000223517418
20
40.750003501772873
0
LWPOLYLINE
5
355
100
AcDbEntity
8
0
100
AcDbPolyline
90
4
70
1
43
0.0
10
40.750000223517418
20
42.750003501772866
10
40.750000223517418
20
68.500003501772852
10
15.000000223517418
20
68.500003501772852
10
15.000000223517418
20
42.750003501772866
0
LWPOLYLINE
5
356
100
AcDbEntity
8
0
100
AcDbPolyline
90
4
70
1
43
0.0
10
40.750000223517418
20
42.750003501772866
10
40.750000223517418
20
68.500003501772852
10
15.000000223517418
20
68.500003501772852
10
15.000000223517418
20
42.750003501772866
0
LWPOLYLINE
5
357
100
AcDbEntity
8
0
100
AcDbPolyline
90
4
70
1
43
0.0
10
40.750000223517418
20
42.750003501772866
10
40.750000223517418
20
68.500003501772852
10
15.000000223517418
20
68.500003501772852
10
15.000000223517418
20
42.750003501772866
0
LWPOLYLINE
5
358
100
AcDbEntity
8
0
100
AcDbPolyline
90
4
70
1
43
0.0
10
98.250000223517432
20
124.00000350177287
10
98.250000223517432
20
98.250003501772881
10
124.00000022351742
20
98.250003501772881
10
124.00000022351742
20
124.00000350177287
0
LWPOLYLINE
5
359
100
AcDbEntity
8
0
100
AcDbPolyline
90
4
70
1
43
0.0
10
42.750000223517418
20
70.500003501772881
10
68.500000223517418
20
70.500003501772881
10
68.500000223517418
20
96.250003501772881
10
42.750000223517418
20
96.250003501772881
0
LWPOLYLINE
5
360
100
AcDbEntity
8
0
100
AcDbPolyline
90
4
70
1
43
0.0
10
126.00000022351743
20
124.00000350177287
10
126.00000022351743
20
98.250003501772881
10
151.75000022351742
20
98.250003501772881
10
151.75000022351742
20
124.00000350177287
0
LWPOLYLINE
5
361
100
AcDbEntity
8
0
100
AcDbPolyline
90
4
70
1
43
0.0
10
235.00000022351742
20
98.250003501772881
10
235.00000022351742
20
124.00000350177287
10
209.25000022351747
20
124.00000350177287
10
209.25000022351747
20
98.250003501772881
0
LWPOLYLINE
5
362
100
AcDbEntity
8
0
100
AcDbPolyline
90
4
70
1
43
0.0
10
126.00000022351743
20
98.250003501772881
10
151.75000022351742
20
98.250003501772881
10
151.75000022351742
20
124.00000350177287
10
126.00000022351743
20
124.00000350177287
0
LWPOLYLINE
5
363
100
AcDbEntity
8
0
100
AcDbPolyline
90
4
70
1
43
0.0
10
98.250000223517418
20
15.000003501772881
10
124.00000022351742
20
15.000003501772881
10
124.00000022351742
20
40.750003501772873
10
98.250000223517418
20
40.750003501772873
0
LWPOLYLINE
5
364
100
AcDbEntity
8
0
100
AcDbPolyline
90
4
70
1
43
0.0
10
153.75000022351742
20
124.00000350177287
10
153.75000022351742
20
98.250003501772881
10
179.50000022351745
20
98.250003501772881
10
179.50000022351745
20
124.00000350177287
0
LWPOLYLINE
5
365
100
AcDbEntity
8
0
100
AcDbPolyline
90
4
70
1
43
0.0
10
151.75000022351742
20
124.00000350177287
10
126.00000022351743
20
124.00000350177287
10
126.00000022351743
20
98.250003501772881
10
151.75000022351742
20
98.250003501772881
0
LWPOLYLINE
5
366
100
AcDbEntity
8
0
100
AcDbPolyline
90
4
70
1
43
0.0
10
151.75000022351742
20
68.500003501772852
10
126.00000022351743
20
68.500003501772852
10
126.00000022351743
20
42.750003501772866
10
151.75000022351742
20
42.750003501772866
0
LWPOLYLINE
5
367
100
AcDbEntity
8
0
100
AcDbPolyline
90
4
70
1
43
0.0
10
235.00000022351742
20
15.000003501772881
10
235.00000022351742
20
40.750003501772873
10
209.25000022351742
20
40.750003501772873
10
209.25000022351742
20
15.000003501772881
0
LWPOLYLINE
5
368
100
AcDbEntity
8
0
100
AcDbPolyline
90
4
70
1
43
0.0
10
42.750000223517411
20
124.00000350177287
10
42.750000223517411
20
98.250003501772881
10
68.500000223517418
20
98.250003501772881
10
68.500000223517418
20
124.00000350177287
0
LWPOLYLINE
5
369
100
AcDbEntity
8
0
100
AcDbPolyline
90
4
70
1
43
0.0
10
124.00000022351742
20
40.750003501772873
10
98.250000223517418
20
40.750003501772873
10
98.250000223517418
20
15.000003501772881
10
124.00000022351742
20
15.000003501772881
0
LWPOLYLINE
5
370
100
AcDbEntity
8
0
100
AcDbPolyline
90
4
70
1
43
0.0
10
181.50000022351742
20
70.500003501772881
10
207.25000022351742
20
70.500003501772881
10
207.25000022351742
20
96.250003501772881
10
181.50000022351742
20
96.250003501772881
0
LWPOLYLINE
5
371
100
AcDbEntity
8
0
100
AcDbPolyline
90
4
70
1
43
0.0
10
179.50000022351745
20
96.250003501772881
10
153.75000022351745
20
96.250003501772881
10
153.75000022351745
20
70.500003501772881
10
179.50000022351745
20
70.500003501772881
0
LWPOLYLINE
5
372
100
AcDbEntity
8
0
100
AcDbPolyline
90
4
70
1
43
0.0
10
98.250000223517418
20
70.500003501772881
10
124.00000022351742
20
70.500003501772881
10
124.00000022351742
20
96.250003501772881
10
98.250000223517418
20
96.250003501772881
0
LWPOLYLINE
5
373
100
AcDbEntity
8
0
100
AcDbPolyline
90
4
70
1
43
0.0
10
181.50000022351745
20
98.250003501772881
10
207.25000022351742
20
98.250003501772881
10
207.25000022351742
20
124.00000350177287
10
181.50000022351745
20
124.00000350177287
0
LWPOLYLINE
5
374
100
AcDbEntity
8
0
100
AcDbPolyline
90
4
70
1
43
0.0
10
42.750000223517411
20
124.00000350177287
10
42.750000223517411
20
98.250003501772881
10
68.500000223517418
20
98.250003501772881
10
68.500000223517418
20
124.00000350177287
0
LWPOLYLINE
5
375
100
AcDbEntity
8
0
100
AcDbPolyline
90
4
70
1
43
0.0
10
126.00000022351743
20
42.750003501772866
10
151.75000022351742
20
42.750003501772866
10
151.75000022351742
20
68.500003501772852
10
126.00000022351743
20
68.500003501772852
0
LWPOLYLINE
5
376
100
AcDbEntity
8
0
100
AcDbPolyline
90
4
70
1
43
0.0
10
153.75000022351745
20
15.000003501772881
10
179.50000022351745
20
15.000003501772881
10
179.50000022351745
20
40.750003501772873
10
153.75000022351745
20
40.750003501772873
0
LWPOLYLINE
5
377
100
AcDbEntity
8
0
100
AcDbPolyline
90
4
70
1
43
0.0
10
40.750000223517418
20
124.00000350177287
10
15.000000223517418
20
124.00000350177287
10
15.000000223517418
20
98.250003501772881
10
40.750000223517418
20
98.250003501772881
0
LWPOLYLINE
5
378
100
AcDbEntity
8
0
100
AcDbPolyline
90
4
70
1
43
0.0
10
40.750000223517418
20
15.000003501772881
10
40.750000223517418
20
40.750003501772873
10
15.000000223517418
20
40.750003501772873
10
15.000000223517418
20
15.000003501772881
0
LWPOLYLINE
5
379
100
AcDbEntity
8
0
100
AcDbPolyline
90
4
70
1
43
0.0
10
15.000000223517418
20
68.500003501772852
10
15.000000223517418
20
42.750003501772866
10
40.750000223517418
20
42.750003501772866
10
40.750000223517418
20
68.500003501772852
0
LWPOLYLINE
5
380
100
AcDbEntity
8
0
100
AcDbPolyline
90
4
70
1
43
0.0
10
40.750000223517418
20
15.000003501772881
10
40.750000223517418
20
40.750003501772873
10
15.000000223517418
20
40.750003501772873
10
15.000000223517418
20
15.000003501772881
0
LWPOLYLINE
5
381
100
AcDbEntity
8
0
100
AcDbPolyline
90
4
70
1
43
0.0
10
40.750000223517418
20
42.750003501772866
10
40.750000223517418
20
68.500003501772852
10
15.000000223517418
20
68.500003501772852
10
15.000000223517418
20
42.750003501772866
0
LWPOLYLINE
5
382
100
AcDbEntity
8
0
100
AcDbPolyline
90
4
70
1
43
0.0
10
98.250000223517432
20
124.00000350177287
10
98.250000223517432
20
98.250003501772881
10
124.00000022351742
20
98.250003501772881
10
124.00000022351742
20
124.00000350177287
0
LWPOLYLINE
5
383
100
AcDbEntity
8
0
100
AcDbPolyline
90
4
70
1
43
0.0
10
40.750000223517418
20
42.750003501772866
10
40.750000223517418
20
68.500003501772852
10
15.000000223517418
20
68.500003501772852
10
15.000000223517418
20
42.750003501772866
0
LWPOLYLINE
5
384
100
AcDbEntity
8
0
100
AcDbPolyline
90
4
70
1
43
0.0
10
151.75000022351742
20
98.250003501772881
10
151.75000022351742
20
124.00000350177287
10
126.00000022351743
20
124.00000350177287
10
126.00000022351743
20
98.250003501772881
0
LWPOLYLINE
5
385
100
AcDbEntity
8
0
100
AcDbPolyline
90
4
70
1
43
0.0
10
151.75000022351742
20
98.250003501772881
10
151.75000022351742
20
124.00000350177287
10
126.00000022351743
20
124.00000350177287
10
126.00000022351743
20
98.250003501772881
0
LWPOLYLINE
5
386
100
AcDbEntity
8
0
100
AcDbPolyline
90
4
70
1
43
0.0
10
151.75000022351742
20
42.750003501772866
10
151.75000022351742
20
68.500003501772852
10
126.00000022351743
20
68.500003501772852
10
126.00000022351743
20
42.750003501772866
0
LWPOLYLINE
5
387
100
AcDbEntity
8
0
100
AcDbPolyline
90
4
70
1
43
0.0
10
98.250000223517432
20
68.500003501772852
10
98.250000223517432
20
42.750003501772866
10
124.00000022351742
20
42.750003501772866
10
124.00000022351742
20
68.500003501772852
0
LWPOLYLINE
5
388
100
AcDbEntity
8
0
100
AcDbPolyline
90
4
70
1
43
0.0
10
209.25000022351742
20
15.000003501772881
10
235.00000022351742
20
15.000003501772881
10
235.00000022351742
20
40.750003501772873
10
209.25000022351742
20
40.750003501772873
0
LWPOLYLINE
5
389
100
AcDbEntity
8
0
100
AcDbPolyline
90
4
70
1
43
0.0
10
40.750000223517418
20
124.00000350177287
10
15.000000223517418
20
124.00000350177287
10
15.000000223517418
20
98.250003501772881
10
40.750000223517418
20
98.250003501772881
0
LWPOLYLINE
5
390
100
AcDbEntity
8
0
100
AcDbPolyline
90
4
70
1
43
0.0
10
124.00000022351742
20
15.000003501772881
10
124.00000022351742
20
40.750003501772873
10
98.250000223517418
20
40.750003501772873
10
98.250000223517418
20
15.000003501772881
0
LWPOLYLINE
5
391
100
AcDbEntity
8
0
100
AcDbPolyline
90
4
70
1
43
0.0
10
153.75000022351745
20
96.250003501772881
10
153.75000022351745
20
70.500003501772881
10
179.50000022351745
20
70.500003501772881
10
179.50000022351745
20
96.250003501772881
0
LWPOLYLINE
5
392
100
AcDbEntity
8
0
100
AcDbPolyline
90
4
70
1
43
0.0
10
209.25000022351742
20
70.500003501772881
10
235.00000022351742
20
70.500003501772881
10
235.00000022351742
20
96.250003501772881
10
209.25000022351742
20
96.250003501772881
0
LWPOLYLINE
5
393
100
AcDbEntity
8
0
100
AcDbPolyline
90
4
70
1
43
0.0
10
181.50000022351742
20
15.000003501772881
10
207.25000022351742
20
15.000003501772881
10
207.25000022351742
20
40.750003501772873
10
181.50000022351742
20
40.750003501772873
0
LWPOLYLINE
5
394
100
AcDbEntity
8
0
100
AcDbPolyline
90
4
70
1
43
0.0
10
96.250000223517418
20
42.750003501772866
10
96.250000223517418
20
68.500003501772852
10
70.500000223517418
20
68.500003501772852
10
70.500000223517418
20
42.750003501772866
0
LWPOLYLINE
5
395
100
AcDbEntity
8
0
100
AcDbPolyline
90
4
70
1
43
0.0
10
181.50000022351745
20
98.250003501772881
10
207.25000022351742
20
98.250003501772881
10
207.25000022351742
20
124.00000350177287
10
181.50000022351745
20
124.00000350177287
0
LWPOLYLINE
5
396
100
AcDbEntity
8
0
100
AcDbPolyline
90
4
70
1
43
0.0
10
151.75000022351742
20
98.250003501772881
10
151.75000022351742
20
124.00000350177287
10
126.00000022351743
20
124.00000350177287
10
126.00000022351743
20
98.250003501772881
0
LWPOLYLINE
5
397
100
AcDbEntity
8
0
100
AcDbPolyline
90
4
70
1
43
0.0
10
96.250000223517418
20
96.250003501772881
10
70.500000223517404
20
96.250003501772881
10
70.500000223517404
20
70.500003501772881
10
96.250000223517418
20
70.500003501772881
0
LWPOLYLINE
5
398
100
AcDbEntity
8
0
100
AcDbPolyline
90
4
70
1
43
0.0
10
126.00000022351743
20
15.000003501772881
10
151.75000022351742
20
15.000003501772881
10
151.75000022351742
20
40.750003501772873
10
126.00000022351743
20
40.750003501772873
0
LWPOLYLINE
5
399
100
AcDbEntity
8
0
100
AcDbPolyline
90
4
70
1
43
0.0
10
235.00000022351742
20
42.750003501772866
10
235.00000022351742
20
68.500003501772852
10
209.25000022351747
20
68.500003501772852
10
209.25000022351747
20
42.750003501772866
0
LWPOLYLINE
5
400
100
AcDbEntity
8
0
100
AcDbPolyline
90
4
70
1
43
0.0
10
207.25000022351742
20
40.750003501772873
10
181.50000022351742
20
40.750003501772873
10
181.50000022351742
20
15.000003501772881
10
207.25000022351742
20
15.000003501772881
0
LWPOLYLINE
5
401
100
AcDbEntity
8
0
100
AcDbPolyline
90
4
70
1
43
0.0
10
42.750000223517411
20
124.00000350177287
10
42.750000223517411
20
98.250003501772881
10
68.500000223517418
20
98.250003501772881
10
68.500000223517418
20
124.00000350177287
0
LWPOLYLINE
5
402
100
AcDbEntity
8
0
100
AcDbPolyline
90
4
70
1
43
0.0
10
207.25000022351742
20
96.250003501772881
10
181.50000022351742
20
96.250003501772881
10
181.50000022351742
20
70.500003501772881
10
207.25000022351742
20
70.500003501772881
0
LWPOLYLINE
5
403
100
AcDbEntity
8
0
100
AcDbPolyline
90
4
70
1
43
0.0
10
124.00000022351742
20
70.500003501772881
10
124.00000022351742
20
96.250003501772881
10
98.250000223517418
20
96.250003501772881
10
98.250000223517418
20
70.500003501772881
0
LWPOLYLINE
5
404
100
AcDbEntity
8
0
100
AcDbPolyline
90
4
70
1
43
0.0
10
179.50000022351745
20
42.750003501772866
10
179.50000022351745
20
68.500003501772852
10
153.75000022351742
20
68.500003501772852
10
153.75000022351742
20
42.750003501772866
0
LWPOLYLINE
5
405
100
AcDbEntity
8
0
100
AcDbPolyline
90
4
70
1
43
0.0
10
151.75000022351742
20
68.500003501772852
10
126.00000022351743
20
68.500003501772852
10
126.00000022351743
20
42.750003501772866
10
151.75000022351742
20
42.750003501772866
0
LWPOLYLINE
5
406
100
AcDbEntity
8
0
100
AcDbPolyline
90
4
70
1
43
0.0
10
209.25000022351747
20
42.750003501772866
10
235.00000022351742
20
42.750003501772866
10
235.00000022351742
20
68.500003501772852
10
209.25000022351747
20
68.500003501772852
0
LWPOLYLINE
5
407
100
AcDbEntity
8
0
100
AcDbPolyline
90
4
70
1
43
0.0
10
40.750000223517418
20
42.750003501772866
10
40.750000223517418
20
68.500003501772852
10
15.000000223517418
20
68.500003501772852
10
15.000000223517418
20
42.750003501772866
0
LWPOLYLINE
5
408
100
AcDbEntity
8
0
100
AcDbPolyline
90
4
70
1
43
0.0
10
40.750000223517418
20
68.500003501772852
10
15.000000223517418
20
68.500003501772852
10
15.000000223517418
20
42.750003501772866
10
40.750000223517418
20
42.750003501772866
0
LWPOLYLINE
5
409
100
AcDbEntity
8
0
100
AcDbPolyline
90
4
70
1
43
0.0
10
40.750000223517418
20
42.750003501772866
10
40.750000223517418
20
68.500003501772852
10
15.000000223517418
20
68.500003501772852
10
15.000000223517418
20
42.750003501772866
0
LWPOLYLINE
5
410
100
AcDbEntity
8
0
100
AcDbPolyline
90
4
70
1
43
0.0
10
15.000000223517418
20
124.00000350177287
10
15.000000223517418
20
98.250003501772881
10
40.750000223517418
20
98.250003501772881
10
40.750000223517418
20
124.00000350177287
0
LWPOLYLINE
5
411
100
AcDbEntity
8
0
100
AcDbPolyline
90
4
70
1
43
0.0
10
151.75000022351742
20
124.00000350177287
10
126.00000022351743
20
124.00000350177287
10
126.00000022351743
20
98.250003501772881
10
151.75000022351742
20
98.250003501772881
0
LWPOLYLINE
5
412
100
AcDbEntity
8
0
100
AcDbPolyline
90
4
70
1
43
0.0
10
15.000000223517418
20
68.500003501772852
10
15.000000223517418
20
42.750003501772866
10
40.750000223517418
20
42.750003501772866
10
40.750000223517418
20
68.500003501772852
0
LWPOLYLINE
5
413
100
AcDbEntity
8
0
100
AcDbPolyline
90
4
70
1
43
0.0
10
126.00000022351743
20
98.250003501772881
10
151.75000022351742
20
98.250003501772881
10
151.75000022351742
20
124.00000350177287
10
126.00000022351743
20
124.00000350177287
0
LWPOLYLINE
5
414
100
AcDbEntity
8
0
100
AcDbPolyline
90
4
70
1
43
0.0
10
209.25000022351747
20
98.250003501772881
10
235.00000022351742
20
98.250003501772881
10
235.00000022351742
20
124.00000350177287
10
209.25000022351747
20
124.00000350177287
0
LWPOLYLINE
5
415
100
AcDbEntity
8
0
100
AcDbPolyline
90
4
70
1
43
0.0
10
40.750000223517418
20
68.500003501772852
10
15.000000223517418
20
68.500003501772852
10
15.000000223517418
20
42.750003501772866
10
40.750000223517418
20
42.750003501772866
0
LWPOLYLINE
5
416
100
AcDbEntity
8
0
100
AcDbPolyline
90
4
70
1
43
0.0
10
15.000000223517418
20
68.500003501772852
10
15.000000223517418
20
42.750003501772866
10
40.750000223517418
20
42.750003501772866
10
40.750000223517418
20
68.500003501772852
0
LWPOLYLINE
5
417
100
AcDbEntity
8
0
100
AcDbPolyline
90
4
70
1
43
0.0
10
40.750000223517418
20
42.750003501772866
10
40.750000223517418
20
68.500003501772852
10
15.000000223517418
20
68.500003501772852
10
15.000000223517418
20
42.750003501772866
0
LWPOLYLINE
5
418
100
AcDbEntity
8
0
100
AcDbPolyline
90
4
70
1
43
0.0
10
40.750000223517418
20
70.500003501772881
10
40.750000223517418
20
96.250003501772881
10
15.000000223517418
20
96.250003501772881
10
15.000000223517418
20
70.500003501772881
0
LWPOLYLINE
5
419
100
AcDbEntity
8
0
100
AcDbPolyline
90
4
70
1
43
0.0
10
42.750000223517418
20
96.250003501772881
10
42.750000223517418
20
70.500003501772881
10
68.500000223517418
20
70.500003501772881
10
68.500000223517418
20
96.250003501772881
0
LWPOLYLINE
5
420
100
AcDbEntity
8
0
100
AcDbPolyline
90
4
70
1
43
0.0
10
98.250000223517418
20
40.750003501772873
10
98.250000223517418
20
15.000003501772881
10
124.00000022351742
20
15.000003501772881
10
124.00000022351742
20
40.750003501772873
0
LWPOLYLINE
5
421
100
AcDbEntity
8
0
100
AcDbPolyline
90
4
70
1
43
0.0
10
42.750000223517418
20
15.000003501772881
10
68.500000223517418
20
15.000003501772881
10
68.500000223517418
20
40.750003501772873
10
42.750000223517418
20
40.750003501772873
0
LWPOLYLINE
5
422
100
AcDbEntity
8
0
100
AcDbPolyline
90
4
70
1
43
0.0
10
70.500000223517404
20
40.750003501772873
10
70.500000223517404
20
15.000003501772881
10
96.250000223517418
20
15.000003501772881
10
96.250000223517418
20
40.750003501772873
0
LWPOLYLINE
5
423
100
AcDbEntity
8
0
100
AcDbPolyline
90
4
70
1
43
0.0
10
126.00000022351743
20
124.00000350177287
10
126.00000022351743
20
98.250003501772881
10
151.75000022351742
20
98.250003501772881
10
151.75000022351742
20
124.00000350177287
0
LWPOLYLINE
5
424
100
AcDbEntity
8
0
100
AcDbPolyline
90
4
70
1
43
0.0
10
70.500000223517404
20
15.000003501772881
10
96.250000223517418
20
15.000003501772881
10
96.250000223517418
20
40.750003501772873
10
70.500000223517404
20
40.750003501772873
0
LWPOLYLINE
5
425
100
AcDbEntity
8
0
100
AcDbPolyline
90
4
70
1
43
0.0
10
151.75000022351742
20
98.250003501772881
10
151.75000022351742
20
124.00000350177287
10
126.00000022351743
20
124.00000350177287
10
126.00000022351743
20
98.250003501772881
0
LWPOLYLINE
5
426
100
AcDbEntity
8
0
100
AcDbPolyline
90
4
70
1
43
0.0
10
70.500000223517418
20
68.500003501772852
10
70.500000223517418
20
42.750003501772866
10
96.250000223517418
20
42.750003501772866
10
96.250000223517418
20
68.500003501772852
0
LWPOLYLINE
5
427
100
AcDbEntity
8
0
100
AcDbPolyline
90
4
70
1
43
0.0
10
151.75000022351742
20
40.750003501772873
10
126.00000022351743
20
40.750003501772873
10
126.00000022351743
20
15.000003501772881
10
151.75000022351742
20
15.000003501772881
0
LWPOLYLINE
5
428
100
AcDbEntity
8
0
100
AcDbPolyline
90
4
70
1
43
0.0
10
126.00000022351743
20
96.250003501772881
10
126.00000022351743
20
70.500003501772881
10
151.75000022351742
20
70.500003501772881
10
151.75000022351742
20
96.250003501772881
0
LWPOLYLINE
5
429
100
AcDbEntity
8
0
100
AcDbPolyline
90
4
70
1
43
0.0
10
151.75000022351742
20
124.00000350177287
10
126.00000022351743
20
124.00000350177287
10
126.00000022351743
20
98.250003501772881
10
151.75000022351742
20
98.250003501772881
0
LWPOLYLINE
5
430
100
AcDbEntity
8
0
100
AcDbPolyline
90
4
70
1
43
0.0
10
179.50000022351745
20
40.750003501772873
10
153.75000022351745
20
40.750003501772873
10
153.75000022351745
20
15.000003501772881
10
179.50000022351745
20
15.000003501772881
0
LWPOLYLINE
5
431
100
AcDbEntity
8
0
100
AcDbPolyline
90
4
70
1
43
0.0
10
151.75000022351742
20
68.500003501772852
10
126.00000022351743
20
68.500003501772852
10
126.00000022351743
20
42.750003501772866
10
151.75000022351742
20
42.750003501772866
0
LWPOLYLINE
5
432
100
AcDbEntity
8
0
100
AcDbPolyline
90
4
70
1
43
0.0
10
70.500000223517404
20
70.500003501772881
10
96.250000223517418
20
70.500003501772881
10
96.250000223517418
20
96.250003501772881
10
70.500000223517404
20
96.250003501772881
0
LWPOLYLINE
5
433
100
AcDbEntity
8
0
100
AcDbPolyline
90
4
70
1
43
0.0
10
151.75000022351742
20
42.750003501772866
10
151.75000022351742
20
68.500003501772852
10
126.00000022351743
20
68.500003501772852
10
126.00000022351743
20
42.750003501772866
0
LWPOLYLINE
5
434
100
AcDbEntity
8
0
100
AcDbPolyline
90
4
70
1
43
0.0
10
151.75000022351742
20
98.250003501772881
10
151.75000022351742
20
124.00000350177287
10
126.00000022351743
20
124.00000350177287
10
126.00000022351743
20
98.250003501772881
0
LWPOLYLINE
5
435
100
AcDbEntity
8
0
100
AcDbPolyline
90
4
70
1
43
0.0
10
151.75000022351742
20
124.00000350177287
10
126.00000022351743
20
124.00000350177287
10
126.00000022351743
20
98.250003501772881
10
151.75000022351742
20
98.250003501772881
0
LWPOLYLINE
5
436
100
AcDbEntity
8
0
100
AcDbPolyline
90
4
70
1
43
0.0
10
209.25000022351747
20
98.250003501772881
10
235.00000022351742
20
98.250003501772881
10
235.00000022351742
20
124.00000350177287
10
209.25000022351747
20
124.00000350177287
0
LWPOLYLINE
5
437
100
AcDbEntity
8
0
100
AcDbPolyline
90
4
70
1
43
0.0
10
235.00000022351742
20
42.750003501772866
10
235.00000022351742
20
68.500003501772852
10
209.25000022351747
20
68.500003501772852
10
209.25000022351747
20
42.750003501772866
0
LWPOLYLINE
5
438
100
AcDbEntity
8
0
100
AcDbPolyline
90
4
70
1
43
0.0
10
179.50000022351745
20
70.500003501772881
10
179.50000022351745
20
96.250003501772881
10
153.75000022351745
20
96.250003501772881
10
153.75000022351745
20
70.500003501772881
0
LWPOLYLINE
5
439
100
AcDbEntity
8
0
100
AcDbPolyline
90
4
70
1
43
0.0
10
96.250000223517418
20
96.250003501772881
10
70.500000223517404
20
96.250003501772881
10
70.500000223517404
20
70.500003501772881
10
96.250000223517418
20
70.500003501772881
0
LWPOLYLINE
5
440
100
AcDbEntity
8
0
100
AcDbPolyline
90
4
70
1
43
0.0
10
151.75000022351742
20
124.00000350177287
10
126.00000022351743
20
124.00000350177287
10
126.00000022351743
20
98.250003501772881
10
151.75000022351742
20
98.250003501772881
0
LWPOLYLINE
5
441
100
AcDbEntity
8
0
100
AcDbPolyline
90
4
70
1
43
0.0
10
42.750000223517418
20
96.250003501772881
10
42.750000223517418
20
70.500003501772881
10
68.500000223517418
20
70.500003501772881
10
68.500000223517418
20
96.250003501772881
0
LWPOLYLINE
5
442
100
AcDbEntity
8
0
100
AcDbPolyline
90
4
70
1
43
0.0
10
151.75000022351742
20
42.750003501772866
10
151.75000022351742
20
68.500003501772852
10
126.00000022351743
20
68.500003501772852
10
126.00000022351743
20
42.750003501772866
0
LWPOLYLINE
5
443
100
AcDbEntity
8
0
100
AcDbPolyline
90
4
70
1
43
0.0
10
181.50000022351742
20
40.750003501772873
10
181.50000022351742
20
15.000003501772881
10
207.25000022351742
20
15.000003501772881
10
207.25000022351742
20
40.750003501772873
0
LWPOLYLINE
5
444
100
AcDbEntity
8
0
100
AcDbPolyline
90
4
70
1
43
0.0
10
153.75000022351742
20
98.250003501772881
10
179.50000022351745
20
98.250003501772881
10
179.50000022351745
20
124.00000350177287
10
153.75000022351742
20
124.00000350177287
0
LWPOLYLINE
5
445
100
AcDbEntity
8
0
100
AcDbPolyline
90
4
70
1
43
0.0
10
96.250000223517418
20
70.500003501772881
10
96.250000223517418
20
96.250003501772881
10
70.500000223517404
20
96.250003501772881
10
70.500000223517404
20
70.500003501772881
0
LWPOLYLINE
5
446
100
AcDbEntity
8
0
100
AcDbPolyline
90
4
70
1
43
0.0
10
68.500000223517418
20
40.750003501772873
10
42.750000223517418
20
40.750003501772873
10
42.750000223517418
20
15.000003501772881
10
68.500000223517418
20
15.000003501772881
0
LWPOLYLINE
5
447
100
AcDbEntity
8
0
100
AcDbPolyline
90
4
70
1
43
0.0
10
40.750000223517418
20
70.500003501772881
10
40.750000223517418
20
96.250003501772881
10
15.000000223517418
20
96.250003501772881
10
15.000000223517418
20
70.500003501772881
0
LWPOLYLINE
5
448
100
AcDbEntity
8
0
100
AcDbPolyline
90
4
70
1
43
0.0
10
209.25000022351742
20
96.250003501772881
10
209.25000022351742
20
70.500003501772881
10
235.00000022351742
20
70.500003501772881
10
235.00000022351742
20
96.250003501772881
0
LWPOLYLINE
5
449
100
AcDbEntity
8
0
100
AcDbPolyline
90
4
70
1
43
0.0
10
68.500000223517418
20
70.500003501772881
10
68.500000223517418
20
96.250003501772881
10
42.750000223517418
20
96.250003501772881
10
42.750000223517418
20
70.500003501772881
0
LWPOLYLINE
5
450
100
AcDbEntity
8
0
100
AcDbPolyline
90
4
70
1
43
0.0
10
96.250000223517418
20
68.500003501772852
10
70.500000223517418
20
68.500003501772852
10
70.500000223517418
20
42.750003501772866
10
96.250000223517418
20
42.750003501772866
0
LWPOLYLINE
5
451
100
AcDbEntity
8
0
100
AcDbPolyline
90
4
70
1
43
0.0
10
181.50000022351745
20
98.250003501772881
10
207.25000022351742
20
98.250003501772881
10
207.25000022351742
20
124.00000350177287
10
181.50000022351745
20
124.00000350177287
0
LWPOLYLINE
5
452
100
AcDbEntity
8
0
100
AcDbPolyline
90
4
70
1
43
0.0
10
96.250000223517418
20
15.000003501772881
10
96.250000223517418
20
40.750003501772873
10
70.500000223517404
20
40.750003501772873
10
70.500000223517404
20
15.000003501772881
0
ENDSEC
0
SECTION
2
OBJECTS
0
DICTIONARY
5
C
100
AcDbDictionary
3
ACAD_GROUP
350
D
3
ACAD_MLINESTYLE
350
17
0
DICTIONARY
5
D
100
AcDbDictionary
0
DICTIONARY
5
1A
330
C
100
AcDbDictionary
0
DICTIONARY
5
17
100
AcDbDictionary
0
ENDSEC
0
EOF
